<?xml version="1.0" encoding="UTF-8" standalone="no"?>
<!DOCTYPE svg PUBLIC "-//W3C//DTD SVG 1.1//EN"
 "http://www.w3.org/Graphics/SVG/1.1/DTD/svg11.dtd">
<!-- Generated by graphviz version 2.44.1 (20200629.0846)
 -->
<!-- Pages: 1 -->
<svg width="1995pt" height="392pt"
 viewBox="0.00 0.00 1995.23 392.00" xmlns="http://www.w3.org/2000/svg" xmlns:xlink="http://www.w3.org/1999/xlink">
<g id="graph0" class="graph" transform="scale(1 1) rotate(0) translate(4 388)">
<polygon fill="white" stroke="transparent" points="-4,4 -4,-388 1991.23,-388 1991.23,4 -4,4"/>
<!-- /opt/t/dead&#45;code/src/old&#45;diff.js_1:0,1:25_ImportDeclaration -->
<g id="node1" class="node">
<title>/opt/t/dead&#45;code/src/old&#45;diff.js_1:0,1:25_ImportDeclaration</title>
<ellipse fill="none" stroke="black" cx="1301.23" cy="-18" rx="226.66" ry="18"/>
<text text-anchor="middle" x="1301.23" y="-14.3" font-family="Times New Roman,serif" font-size="14.00">/opt/t/dead&#45;code/src/old&#45;diff.js_1:0,1:25_ImportDeclaration</text>
</g>
<!-- /opt/t/dead&#45;code/src/old&#45;diff.js_2:0,2:37_ImportDeclaration -->
<g id="node2" class="node">
<title>/opt/t/dead&#45;code/src/old&#45;diff.js_2:0,2:37_ImportDeclaration</title>
<ellipse fill="none" stroke="black" cx="237.23" cy="-18" rx="226.66" ry="18"/>
<text text-anchor="middle" x="237.23" y="-14.3" font-family="Times New Roman,serif" font-size="14.00">/opt/t/dead&#45;code/src/old&#45;diff.js_2:0,2:37_ImportDeclaration</text>
</g>
<!-- /opt/t/dead&#45;code/src/old&#45;diff.js_4:0,4:22_ExpressionStatement -->
<g id="node3" class="node">
<title>/opt/t/dead&#45;code/src/old&#45;diff.js_4:0,4:22_ExpressionStatement</title>
<ellipse fill="none" stroke="black" cx="237.23" cy="-105" rx="237.46" ry="18"/>
<text text-anchor="middle" x="237.23" y="-101.3" font-family="Times New Roman,serif" font-size="14.00">/opt/t/dead&#45;code/src/old&#45;diff.js_4:0,4:22_ExpressionStatement</text>
</g>
<!-- /opt/t/dead&#45;code/src/old&#45;diff.js_4:0,4:22_ExpressionStatement&#45;&gt;/opt/t/dead&#45;code/src/old&#45;diff.js_1:0,1:25_ImportDeclaration -->
<g id="edge1" class="edge">
<title>/opt/t/dead&#45;code/src/old&#45;diff.js_4:0,4:22_ExpressionStatement&#45;&gt;/opt/t/dead&#45;code/src/old&#45;diff.js_1:0,1:25_ImportDeclaration</title>
<path fill="none" stroke="black" d="M392.15,-91.36C517.14,-81.19 697.49,-66.57 855.23,-54 947.95,-46.61 1051.52,-38.48 1135.5,-31.91"/>
<polygon fill="black" stroke="black" points="1135.95,-35.39 1145.64,-31.12 1135.4,-28.41 1135.95,-35.39"/>
<text text-anchor="middle" x="914.23" y="-57.8" font-family="Times New Roman,serif" font-size="14.00">rel=READ,var=dayjs</text>
</g>
<!-- /opt/t/dead&#45;code/src/old&#45;diff.js_4:0,4:22_ExpressionStatement&#45;&gt;/opt/t/dead&#45;code/src/old&#45;diff.js_2:0,2:37_ImportDeclaration -->
<g id="edge2" class="edge">
<title>/opt/t/dead&#45;code/src/old&#45;diff.js_4:0,4:22_ExpressionStatement&#45;&gt;/opt/t/dead&#45;code/src/old&#45;diff.js_2:0,2:37_ImportDeclaration</title>
<path fill="none" stroke="black" d="M237.23,-86.8C237.23,-75.16 237.23,-59.55 237.23,-46.24"/>
<polygon fill="black" stroke="black" points="240.73,-46.18 237.23,-36.18 233.73,-46.18 240.73,-46.18"/>
<text text-anchor="middle" x="304.73" y="-57.8" font-family="Times New Roman,serif" font-size="14.00">rel=READ,var=duration</text>
</g>
<!-- /opt/t/dead&#45;code/src/old&#45;diff.js_6:0,10:1_ExportDefaultDeclaration -->
<g id="node4" class="node">
<title>/opt/t/dead&#45;code/src/old&#45;diff.js_6:0,10:1_ExportDefaultDeclaration</title>
<ellipse fill="none" stroke="black" cx="987.23" cy="-279" rx="252.66" ry="18"/>
<text text-anchor="middle" x="987.23" y="-275.3" font-family="Times New Roman,serif" font-size="14.00">/opt/t/dead&#45;code/src/old&#45;diff.js_6:0,10:1_ExportDefaultDeclaration</text>
</g>
<!-- /opt/t/dead&#45;code/src/old&#45;diff.js_6:15,10:1_FunctionDeclaration -->
<g id="node5" class="node">
<title>/opt/t/dead&#45;code/src/old&#45;diff.js_6:15,10:1_FunctionDeclaration</title>
<ellipse fill="none" stroke="black" cx="880.23" cy="-192" rx="238.56" ry="18"/>
<text text-anchor="middle" x="880.23" y="-188.3" font-family="Times New Roman,serif" font-size="14.00">/opt/t/dead&#45;code/src/old&#45;diff.js_6:15,10:1_FunctionDeclaration</text>
</g>
<!-- /opt/t/dead&#45;code/src/old&#45;diff.js_6:0,10:1_ExportDefaultDeclaration&#45;&gt;/opt/t/dead&#45;code/src/old&#45;diff.js_6:15,10:1_FunctionDeclaration -->
<g id="edge21" class="edge">
<title>/opt/t/dead&#45;code/src/old&#45;diff.js_6:0,10:1_ExportDefaultDeclaration&#45;&gt;/opt/t/dead&#45;code/src/old&#45;diff.js_6:15,10:1_FunctionDeclaration</title>
<path fill="none" stroke="black" d="M964.64,-261.07C957.15,-255.39 948.79,-248.97 941.23,-243 930.46,-234.49 918.78,-224.99 908.54,-216.56"/>
<polygon fill="black" stroke="black" points="910.63,-213.75 900.69,-210.08 906.17,-219.15 910.63,-213.75"/>
<text text-anchor="middle" x="989.73" y="-231.8" font-family="Times New Roman,serif" font-size="14.00">rel=EXP,var=diff</text>
</g>
<!-- /opt/t/dead&#45;code/src/old&#45;diff.js_6:0,10:1_ExportDefaultDeclaration&#45;&gt;/opt/t/dead&#45;code/src/old&#45;diff.js_6:15,10:1_FunctionDeclaration -->
<g id="edge22" class="edge">
<title>/opt/t/dead&#45;code/src/old&#45;diff.js_6:0,10:1_ExportDefaultDeclaration&#45;&gt;/opt/t/dead&#45;code/src/old&#45;diff.js_6:15,10:1_FunctionDeclaration</title>
<path fill="none" stroke="black" d="M866.06,-263.12C845.32,-258.13 828.19,-251.58 821.23,-243 812.98,-232.83 819.58,-223.16 830.9,-215.07"/>
<polygon fill="black" stroke="black" points="832.77,-218.03 839.37,-209.75 829.04,-212.11 832.77,-218.03"/>
<text text-anchor="middle" x="869.73" y="-231.8" font-family="Times New Roman,serif" font-size="14.00">rel=EXP,var=diff</text>
</g>
<!-- /opt/t/dead&#45;code/src/old&#45;diff.js_7:2,7:24_VariableDeclaration -->
<g id="node6" class="node">
<title>/opt/t/dead&#45;code/src/old&#45;diff.js_7:2,7:24_VariableDeclaration</title>
<ellipse fill="none" stroke="black" cx="1489.23" cy="-279" rx="231.26" ry="18"/>
<text text-anchor="middle" x="1489.23" y="-275.3" font-family="Times New Roman,serif" font-size="14.00">/opt/t/dead&#45;code/src/old&#45;diff.js_7:2,7:24_VariableDeclaration</text>
</g>
<!-- /opt/t/dead&#45;code/src/old&#45;diff.js_6:15,10:1_FunctionDeclaration&#45;&gt;/opt/t/dead&#45;code/src/old&#45;diff.js_7:2,7:24_VariableDeclaration -->
<g id="edge12" class="edge">
<title>/opt/t/dead&#45;code/src/old&#45;diff.js_6:15,10:1_FunctionDeclaration&#45;&gt;/opt/t/dead&#45;code/src/old&#45;diff.js_7:2,7:24_VariableDeclaration</title>
<path fill="none" stroke="black" d="M1071.42,-202.85C1106.29,-208.25 1141.86,-216.25 1174.23,-228 1185.7,-232.16 1185.76,-238.83 1197.23,-243 1227.02,-253.83 1259.53,-261.46 1291.69,-266.81"/>
<polygon fill="black" stroke="black" points="1291.23,-270.28 1301.66,-268.4 1292.34,-263.37 1291.23,-270.28"/>
<text text-anchor="middle" x="1268.23" y="-231.8" font-family="Times New Roman,serif" font-size="14.00">rel=ARG,var=start,idx=0</text>
</g>
<!-- /opt/t/dead&#45;code/src/old&#45;diff.js_8:2,8:22_VariableDeclaration -->
<g id="node7" class="node">
<title>/opt/t/dead&#45;code/src/old&#45;diff.js_8:2,8:22_VariableDeclaration</title>
<ellipse fill="none" stroke="black" cx="724.23" cy="-105" rx="231.26" ry="18"/>
<text text-anchor="middle" x="724.23" y="-101.3" font-family="Times New Roman,serif" font-size="14.00">/opt/t/dead&#45;code/src/old&#45;diff.js_8:2,8:22_VariableDeclaration</text>
</g>
<!-- /opt/t/dead&#45;code/src/old&#45;diff.js_6:15,10:1_FunctionDeclaration&#45;&gt;/opt/t/dead&#45;code/src/old&#45;diff.js_8:2,8:22_VariableDeclaration -->
<g id="edge13" class="edge">
<title>/opt/t/dead&#45;code/src/old&#45;diff.js_6:15,10:1_FunctionDeclaration&#45;&gt;/opt/t/dead&#45;code/src/old&#45;diff.js_8:2,8:22_VariableDeclaration</title>
<path fill="none" stroke="black" d="M928.46,-174.31C946.13,-165.59 959.38,-154.03 948.23,-141 940.2,-131.62 922.66,-124.74 900.76,-119.69"/>
<polygon fill="black" stroke="black" points="901.27,-116.22 890.76,-117.57 899.81,-123.07 901.27,-116.22"/>
<text text-anchor="middle" x="1021.23" y="-144.8" font-family="Times New Roman,serif" font-size="14.00">rel=ARG,var=end,idx=1</text>
</g>
<!-- /opt/t/dead&#45;code/src/old&#45;diff.js_7:2,7:24_VariableDeclaration&#45;&gt;/opt/t/dead&#45;code/src/old&#45;diff.js_1:0,1:25_ImportDeclaration -->
<g id="edge4" class="edge">
<title>/opt/t/dead&#45;code/src/old&#45;diff.js_7:2,7:24_VariableDeclaration&#45;&gt;/opt/t/dead&#45;code/src/old&#45;diff.js_1:0,1:25_ImportDeclaration</title>
<path fill="none" stroke="black" d="M1511.6,-260.91C1520.82,-251.66 1528.31,-239.76 1523.23,-228 1485.92,-141.64 1393.42,-74.46 1340.34,-41.45"/>
<polygon fill="black" stroke="black" points="1341.9,-38.3 1331.54,-36.07 1338.25,-44.27 1341.9,-38.3"/>
<text text-anchor="middle" x="1534.23" y="-144.8" font-family="Times New Roman,serif" font-size="14.00">rel=READ,var=dayjs</text>
</g>
<!-- /opt/t/dead&#45;code/src/old&#45;diff.js_7:2,7:24_VariableDeclaration&#45;&gt;/opt/t/dead&#45;code/src/old&#45;diff.js_6:15,10:1_FunctionDeclaration -->
<g id="edge5" class="edge">
<title>/opt/t/dead&#45;code/src/old&#45;diff.js_7:2,7:24_VariableDeclaration&#45;&gt;/opt/t/dead&#45;code/src/old&#45;diff.js_6:15,10:1_FunctionDeclaration</title>
<path fill="none" stroke="black" d="M1323.93,-266.37C1208.92,-257.97 1073.98,-247.36 1061.23,-243 1049.68,-239.05 1049.48,-232.73 1038.23,-228 1021.84,-221.11 1003.9,-215.49 986.17,-210.93"/>
<polygon fill="black" stroke="black" points="986.91,-207.5 976.36,-208.5 985.23,-214.3 986.91,-207.5"/>
<text text-anchor="middle" x="1117.73" y="-231.8" font-family="Times New Roman,serif" font-size="14.00">rel=READ,var=start</text>
</g>
<!-- /opt/t/dead&#45;code/src/old&#45;diff.js_7:2,7:24_VariableDeclaration&#45;&gt;/opt/t/dead&#45;code/src/old&#45;diff.js_6:15,10:1_FunctionDeclaration -->
<g id="edge14" class="edge">
<title>/opt/t/dead&#45;code/src/old&#45;diff.js_7:2,7:24_VariableDeclaration&#45;&gt;/opt/t/dead&#45;code/src/old&#45;diff.js_6:15,10:1_FunctionDeclaration</title>
<path fill="none" stroke="black" d="M1415.67,-261.87C1397.8,-256.83 1379.01,-250.56 1362.23,-243 1351.1,-237.99 1350.79,-231.92 1339.23,-228 1296.19,-213.4 1200.8,-204.87 1108.07,-199.89"/>
<polygon fill="black" stroke="black" points="1108.12,-196.39 1097.95,-199.36 1107.75,-203.38 1108.12,-196.39"/>
<text text-anchor="middle" x="1442.73" y="-231.8" font-family="Times New Roman,serif" font-size="14.00">rel=PARAM,var=start,idx=0</text>
</g>
<!-- /opt/t/dead&#45;code/src/old&#45;diff.js_7:2,7:24_VariableDeclaration&#45;&gt;/opt/t/dead&#45;code/src/old&#45;diff.js_7:2,7:24_VariableDeclaration -->
<g id="edge3" class="edge">
<title>/opt/t/dead&#45;code/src/old&#45;diff.js_7:2,7:24_VariableDeclaration&#45;&gt;/opt/t/dead&#45;code/src/old&#45;diff.js_7:2,7:24_VariableDeclaration</title>
<path fill="none" stroke="black" d="M1706.42,-285.26C1726.18,-283.96 1738.61,-281.87 1738.61,-279 1738.61,-276.67 1730.4,-274.85 1716.73,-273.56"/>
<polygon fill="black" stroke="black" points="1716.66,-270.04 1706.42,-272.74 1716.11,-277.02 1716.66,-270.04"/>
<text text-anchor="middle" x="1790.11" y="-275.3" font-family="Times New Roman,serif" font-size="14.00">rel=WRITE,var=a</text>
</g>
<!-- /opt/t/dead&#45;code/src/old&#45;diff.js_8:2,8:22_VariableDeclaration&#45;&gt;/opt/t/dead&#45;code/src/old&#45;diff.js_1:0,1:25_ImportDeclaration -->
<g id="edge7" class="edge">
<title>/opt/t/dead&#45;code/src/old&#45;diff.js_8:2,8:22_VariableDeclaration&#45;&gt;/opt/t/dead&#45;code/src/old&#45;diff.js_1:0,1:25_ImportDeclaration</title>
<path fill="none" stroke="black" d="M827.05,-88.85C928.75,-73.87 1083.96,-51.01 1188.85,-35.55"/>
<polygon fill="black" stroke="black" points="1189.46,-39 1198.84,-34.08 1188.44,-32.08 1189.46,-39"/>
<text text-anchor="middle" x="1106.23" y="-57.8" font-family="Times New Roman,serif" font-size="14.00">rel=READ,var=dayjs</text>
</g>
<!-- /opt/t/dead&#45;code/src/old&#45;diff.js_8:2,8:22_VariableDeclaration&#45;&gt;/opt/t/dead&#45;code/src/old&#45;diff.js_6:15,10:1_FunctionDeclaration -->
<g id="edge8" class="edge">
<title>/opt/t/dead&#45;code/src/old&#45;diff.js_8:2,8:22_VariableDeclaration&#45;&gt;/opt/t/dead&#45;code/src/old&#45;diff.js_6:15,10:1_FunctionDeclaration</title>
<path fill="none" stroke="black" d="M678.42,-122.79C661.28,-131.6 648.32,-143.23 659.23,-156 667,-165.09 683.81,-171.84 704.87,-176.84"/>
<polygon fill="black" stroke="black" points="704.31,-180.3 714.83,-179.01 705.81,-173.46 704.31,-180.3"/>
<text text-anchor="middle" x="713.73" y="-144.8" font-family="Times New Roman,serif" font-size="14.00">rel=READ,var=end</text>
</g>
<!-- /opt/t/dead&#45;code/src/old&#45;diff.js_8:2,8:22_VariableDeclaration&#45;&gt;/opt/t/dead&#45;code/src/old&#45;diff.js_6:15,10:1_FunctionDeclaration -->
<g id="edge15" class="edge">
<title>/opt/t/dead&#45;code/src/old&#45;diff.js_8:2,8:22_VariableDeclaration&#45;&gt;/opt/t/dead&#45;code/src/old&#45;diff.js_6:15,10:1_FunctionDeclaration</title>
<path fill="none" stroke="black" d="M745.64,-123.05C763.67,-137.41 786.64,-155.67 787.23,-156 796.77,-161.4 807.3,-166.28 817.75,-170.56"/>
<polygon fill="black" stroke="black" points="816.7,-173.91 827.29,-174.32 819.27,-167.4 816.7,-173.91"/>
<text text-anchor="middle" x="865.73" y="-144.8" font-family="Times New Roman,serif" font-size="14.00">rel=PARAM,var=end,idx=0</text>
</g>
<!-- /opt/t/dead&#45;code/src/old&#45;diff.js_8:2,8:22_VariableDeclaration&#45;&gt;/opt/t/dead&#45;code/src/old&#45;diff.js_8:2,8:22_VariableDeclaration -->
<g id="edge6" class="edge">
<title>/opt/t/dead&#45;code/src/old&#45;diff.js_8:2,8:22_VariableDeclaration&#45;&gt;/opt/t/dead&#45;code/src/old&#45;diff.js_8:2,8:22_VariableDeclaration</title>
<path fill="none" stroke="black" d="M941.42,-111.26C961.18,-109.96 973.61,-107.87 973.61,-105 973.61,-102.67 965.4,-100.85 951.73,-99.56"/>
<polygon fill="black" stroke="black" points="951.66,-96.04 941.42,-98.74 951.11,-103.02 951.66,-96.04"/>
<text text-anchor="middle" x="1025.61" y="-101.3" font-family="Times New Roman,serif" font-size="14.00">rel=WRITE,var=b</text>
</g>
<!-- /opt/t/dead&#45;code/src/old&#45;diff.js_9:2,9:34_ReturnStatement -->
<g id="node8" class="node">
<title>/opt/t/dead&#45;code/src/old&#45;diff.js_9:2,9:34_ReturnStatement</title>
<ellipse fill="none" stroke="black" cx="501.23" cy="-366" rx="220.96" ry="18"/>
<text text-anchor="middle" x="501.23" y="-362.3" font-family="Times New Roman,serif" font-size="14.00">/opt/t/dead&#45;code/src/old&#45;diff.js_9:2,9:34_ReturnStatement</text>
</g>
<!-- /opt/t/dead&#45;code/src/old&#45;diff.js_9:2,9:34_ReturnStatement&#45;&gt;/opt/t/dead&#45;code/src/old&#45;diff.js_1:0,1:25_ImportDeclaration -->
<g id="edge9" class="edge">
<title>/opt/t/dead&#45;code/src/old&#45;diff.js_9:2,9:34_ReturnStatement&#45;&gt;/opt/t/dead&#45;code/src/old&#45;diff.js_1:0,1:25_ImportDeclaration</title>
<path fill="none" stroke="black" d="M701.34,-358.35C875.48,-352.2 1134.62,-342.19 1360.23,-330 1473.72,-323.87 1869.23,-393.66 1869.23,-280 1869.23,-280 1869.23,-280 1869.23,-104 1869.23,-64.9 1656.03,-41.81 1490.87,-29.78"/>
<polygon fill="black" stroke="black" points="1490.78,-26.27 1480.56,-29.04 1490.28,-33.25 1490.78,-26.27"/>
<text text-anchor="middle" x="1928.23" y="-188.3" font-family="Times New Roman,serif" font-size="14.00">rel=READ,var=dayjs</text>
</g>
<!-- /opt/t/dead&#45;code/src/old&#45;diff.js_9:2,9:34_ReturnStatement&#45;&gt;/opt/t/dead&#45;code/src/old&#45;diff.js_6:15,10:1_FunctionDeclaration -->
<g id="edge16" class="edge">
<title>/opt/t/dead&#45;code/src/old&#45;diff.js_9:2,9:34_ReturnStatement&#45;&gt;/opt/t/dead&#45;code/src/old&#45;diff.js_6:15,10:1_FunctionDeclaration</title>
<path fill="none" stroke="black" d="M484.35,-348.05C464.64,-326.17 437.22,-287.73 458.23,-261 479.14,-234.39 500.61,-255.09 532.23,-243 545.42,-237.96 546.74,-232.18 560.23,-228 596.49,-216.77 636.04,-209.03 674.58,-203.73"/>
<polygon fill="black" stroke="black" points="675.43,-207.15 684.89,-202.36 674.51,-200.21 675.43,-207.15"/>
<text text-anchor="middle" x="497.73" y="-275.3" font-family="Times New Roman,serif" font-size="14.00">rel=RETURN</text>
</g>
<!-- /opt/t/dead&#45;code/src/old&#45;diff.js_9:2,9:34_ReturnStatement&#45;&gt;/opt/t/dead&#45;code/src/old&#45;diff.js_6:15,10:1_FunctionDeclaration -->
<g id="edge18" class="edge">
<title>/opt/t/dead&#45;code/src/old&#45;diff.js_9:2,9:34_ReturnStatement&#45;&gt;/opt/t/dead&#45;code/src/old&#45;diff.js_6:15,10:1_FunctionDeclaration</title>
<path fill="none" stroke="black" d="M510.29,-347.62C524.48,-321.06 551.99,-272.26 568.23,-261 607.67,-233.64 656.13,-217 702.99,-206.97"/>
<polygon fill="black" stroke="black" points="703.86,-210.37 712.96,-204.93 702.46,-203.51 703.86,-210.37"/>
<text text-anchor="middle" x="646.73" y="-275.3" font-family="Times New Roman,serif" font-size="14.00">rel=PARAM,var=diff,idx=0</text>
</g>
<!-- /opt/t/dead&#45;code/src/old&#45;diff.js_9:2,9:34_ReturnStatement&#45;&gt;/opt/t/dead&#45;code/src/old&#45;diff.js_7:2,7:24_VariableDeclaration -->
<g id="edge10" class="edge">
<title>/opt/t/dead&#45;code/src/old&#45;diff.js_9:2,9:34_ReturnStatement&#45;&gt;/opt/t/dead&#45;code/src/old&#45;diff.js_7:2,7:24_VariableDeclaration</title>
<path fill="none" stroke="black" d="M624.19,-351.02C721.52,-340.25 860.95,-325.48 983.23,-315 1101.29,-304.89 1131.02,-305.19 1249.23,-297 1270.46,-295.53 1292.74,-293.97 1314.82,-292.42"/>
<polygon fill="black" stroke="black" points="1315.22,-295.9 1324.95,-291.71 1314.73,-288.92 1315.22,-295.9"/>
<text text-anchor="middle" x="1030.73" y="-318.8" font-family="Times New Roman,serif" font-size="14.00">rel=READ,var=a</text>
</g>
<!-- /opt/t/dead&#45;code/src/old&#45;diff.js_9:2,9:34_ReturnStatement&#45;&gt;/opt/t/dead&#45;code/src/old&#45;diff.js_7:2,7:24_VariableDeclaration -->
<g id="edge17" class="edge">
<title>/opt/t/dead&#45;code/src/old&#45;diff.js_9:2,9:34_ReturnStatement&#45;&gt;/opt/t/dead&#45;code/src/old&#45;diff.js_7:2,7:24_VariableDeclaration</title>
<path fill="none" stroke="black" d="M689.2,-356.48C802.1,-350.64 948.55,-341.81 1078.23,-330 1177.18,-320.99 1289.11,-307.13 1371.14,-296.29"/>
<polygon fill="black" stroke="black" points="1371.8,-299.73 1381.25,-294.95 1370.88,-292.79 1371.8,-299.73"/>
<text text-anchor="middle" x="1284.73" y="-318.8" font-family="Times New Roman,serif" font-size="14.00">rel=PARAM,var=a,idx=0</text>
</g>
<!-- /opt/t/dead&#45;code/src/old&#45;diff.js_9:2,9:34_ReturnStatement&#45;&gt;/opt/t/dead&#45;code/src/old&#45;diff.js_8:2,8:22_VariableDeclaration -->
<g id="edge11" class="edge">
<title>/opt/t/dead&#45;code/src/old&#45;diff.js_9:2,9:34_ReturnStatement&#45;&gt;/opt/t/dead&#45;code/src/old&#45;diff.js_8:2,8:22_VariableDeclaration</title>
<path fill="none" stroke="black" d="M337.7,-353.88C282.72,-348.4 229.05,-340.63 204.23,-330 144.42,-304.39 71.55,-286.88 99.23,-228 125.01,-173.15 147.91,-163.38 204.23,-141 261.97,-118.06 421.24,-127.19 483.23,-123 504.92,-121.54 527.71,-119.97 550.25,-118.4"/>
<polygon fill="black" stroke="black" points="550.51,-121.89 560.25,-117.7 550.03,-114.9 550.51,-121.89"/>
<text text-anchor="middle" x="147.73" y="-231.8" font-family="Times New Roman,serif" font-size="14.00">rel=READ,var=b</text>
</g>
<!-- /opt/t/dead&#45;code/src/old&#45;diff.js_9:2,9:34_ReturnStatement&#45;&gt;/opt/t/dead&#45;code/src/old&#45;diff.js_8:2,8:22_VariableDeclaration -->
<g id="edge19" class="edge">
<title>/opt/t/dead&#45;code/src/old&#45;diff.js_9:2,9:34_ReturnStatement&#45;&gt;/opt/t/dead&#45;code/src/old&#45;diff.js_8:2,8:22_VariableDeclaration</title>
<path fill="none" stroke="black" d="M378.82,-350.95C284.84,-334.4 177.63,-299.51 219.23,-228 258.56,-160.38 297.69,-164.72 372.23,-141 390.75,-135.11 477.04,-126.48 559.55,-119.27"/>
<polygon fill="black" stroke="black" points="559.92,-122.75 569.58,-118.4 559.32,-115.78 559.92,-122.75"/>
<text text-anchor="middle" x="291.73" y="-231.8" font-family="Times New Roman,serif" font-size="14.00">rel=PARAM,var=b,idx=0</text>
</g>
<!-- /opt/t/dead&#45;code/src/old&#45;diff.js_9:2,9:34_ReturnStatement&#45;&gt;/opt/t/dead&#45;code/src/old&#45;diff.js_8:2,8:22_VariableDeclaration -->
<g id="edge20" class="edge">
<title>/opt/t/dead&#45;code/src/old&#45;diff.js_9:2,9:34_ReturnStatement&#45;&gt;/opt/t/dead&#45;code/src/old&#45;diff.js_8:2,8:22_VariableDeclaration</title>
<path fill="none" stroke="black" d="M467.6,-348.16C422.25,-323.16 350.69,-274.2 383.23,-228 425.85,-167.49 501.37,-136.83 570.52,-121.37"/>
<polygon fill="black" stroke="black" points="571.63,-124.71 580.68,-119.19 570.17,-117.86 571.63,-124.71"/>
<text text-anchor="middle" x="455.73" y="-231.8" font-family="Times New Roman,serif" font-size="14.00">rel=PARAM,var=b,idx=0</text>
</g>
</g>
</svg>
