<?xml version="1.0" encoding="UTF-8" standalone="no"?>
<!DOCTYPE svg PUBLIC "-//W3C//DTD SVG 1.1//EN"
 "http://www.w3.org/Graphics/SVG/1.1/DTD/svg11.dtd">
<!-- Generated by graphviz version 2.44.1 (20200629.0846)
 -->
<!-- Pages: 1 -->
<svg width="4265pt" height="218pt"
 viewBox="0.00 0.00 4264.88 218.00" xmlns="http://www.w3.org/2000/svg" xmlns:xlink="http://www.w3.org/1999/xlink">
<g id="graph0" class="graph" transform="scale(1 1) rotate(0) translate(4 214)">
<polygon fill="white" stroke="transparent" points="-4,4 -4,-214 4260.88,-214 4260.88,4 -4,4"/>
<!-- /opt/t/dead&#45;code/src/diff.js_1:0,1:60_ImportDeclaration -->
<g id="node1" class="node">
<title>/opt/t/dead&#45;code/src/diff.js_1:0,1:60_ImportDeclaration</title>
<ellipse fill="none" stroke="black" cx="211.88" cy="-105" rx="211.76" ry="18"/>
<text text-anchor="middle" x="211.88" y="-101.3" font-family="Times New Roman,serif" font-size="14.00">/opt/t/dead&#45;code/src/diff.js_1:0,1:60_ImportDeclaration</text>
</g>
<!-- /opt/t/dead&#45;code/src/diff.js_2:0,2:52_ImportDeclaration -->
<g id="node2" class="node">
<title>/opt/t/dead&#45;code/src/diff.js_2:0,2:52_ImportDeclaration</title>
<ellipse fill="none" stroke="black" cx="672.88" cy="-105" rx="211.76" ry="18"/>
<text text-anchor="middle" x="672.88" y="-101.3" font-family="Times New Roman,serif" font-size="14.00">/opt/t/dead&#45;code/src/diff.js_2:0,2:52_ImportDeclaration</text>
</g>
<!-- /opt/t/dead&#45;code/src/diff.js_4:0,6:1_FunctionDeclaration -->
<g id="node3" class="node">
<title>/opt/t/dead&#45;code/src/diff.js_4:0,6:1_FunctionDeclaration</title>
<ellipse fill="none" stroke="black" cx="3730.88" cy="-192" rx="215.26" ry="18"/>
<text text-anchor="middle" x="3730.88" y="-188.3" font-family="Times New Roman,serif" font-size="14.00">/opt/t/dead&#45;code/src/diff.js_4:0,6:1_FunctionDeclaration</text>
</g>
<!-- /opt/t/dead&#45;code/src/diff.js_5:2,5:30_ReturnStatement -->
<g id="node4" class="node">
<title>/opt/t/dead&#45;code/src/diff.js_5:2,5:30_ReturnStatement</title>
<ellipse fill="none" stroke="black" cx="3730.88" cy="-105" rx="206.06" ry="18"/>
<text text-anchor="middle" x="3730.88" y="-101.3" font-family="Times New Roman,serif" font-size="14.00">/opt/t/dead&#45;code/src/diff.js_5:2,5:30_ReturnStatement</text>
</g>
<!-- /opt/t/dead&#45;code/src/diff.js_4:0,6:1_FunctionDeclaration&#45;&gt;/opt/t/dead&#45;code/src/diff.js_5:2,5:30_ReturnStatement -->
<g id="edge11" class="edge">
<title>/opt/t/dead&#45;code/src/diff.js_4:0,6:1_FunctionDeclaration&#45;&gt;/opt/t/dead&#45;code/src/diff.js_5:2,5:30_ReturnStatement</title>
<path fill="none" stroke="black" d="M3546.41,-182.71C3422.34,-176.21 3279.63,-166.52 3269.88,-156 3265.35,-151.11 3265.35,-145.89 3269.88,-141 3287.64,-121.84 3406.57,-113.12 3519.18,-109.17"/>
<polygon fill="black" stroke="black" points="3519.48,-112.66 3529.35,-108.82 3519.24,-105.66 3519.48,-112.66"/>
<text text-anchor="middle" x="3340.88" y="-144.8" font-family="Times New Roman,serif" font-size="14.00">rel=ARG,var=start,idx=0</text>
</g>
<!-- /opt/t/dead&#45;code/src/diff.js_4:0,6:1_FunctionDeclaration&#45;&gt;/opt/t/dead&#45;code/src/diff.js_5:2,5:30_ReturnStatement -->
<g id="edge12" class="edge">
<title>/opt/t/dead&#45;code/src/diff.js_4:0,6:1_FunctionDeclaration&#45;&gt;/opt/t/dead&#45;code/src/diff.js_5:2,5:30_ReturnStatement</title>
<path fill="none" stroke="black" d="M3571.08,-179.95C3512.41,-174.24 3457.97,-166.28 3448.88,-156 3430.37,-135.05 3482.56,-122.85 3546.9,-115.77"/>
<polygon fill="black" stroke="black" points="3547.32,-119.24 3556.89,-114.71 3546.58,-112.28 3547.32,-119.24"/>
<text text-anchor="middle" x="3517.88" y="-144.8" font-family="Times New Roman,serif" font-size="14.00">rel=ARG,var=end,idx=1</text>
</g>
<!-- /opt/t/dead&#45;code/src/diff.js_5:2,5:30_ReturnStatement&#45;&gt;/opt/t/dead&#45;code/src/diff.js_4:0,6:1_FunctionDeclaration -->
<g id="edge1" class="edge">
<title>/opt/t/dead&#45;code/src/diff.js_5:2,5:30_ReturnStatement&#45;&gt;/opt/t/dead&#45;code/src/diff.js_4:0,6:1_FunctionDeclaration</title>
<path fill="none" stroke="black" d="M3615.02,-119.99C3594.03,-127.39 3582.5,-138.7 3595.88,-156 3601.03,-162.66 3613.36,-168.29 3628.57,-172.95"/>
<polygon fill="black" stroke="black" points="3627.8,-176.37 3638.38,-175.72 3629.71,-169.63 3627.8,-176.37"/>
<text text-anchor="middle" x="3652.38" y="-144.8" font-family="Times New Roman,serif" font-size="14.00">rel=READ,var=start</text>
</g>
<!-- /opt/t/dead&#45;code/src/diff.js_5:2,5:30_ReturnStatement&#45;&gt;/opt/t/dead&#45;code/src/diff.js_4:0,6:1_FunctionDeclaration -->
<g id="edge2" class="edge">
<title>/opt/t/dead&#45;code/src/diff.js_5:2,5:30_ReturnStatement&#45;&gt;/opt/t/dead&#45;code/src/diff.js_4:0,6:1_FunctionDeclaration</title>
<path fill="none" stroke="black" d="M3730.88,-123.18C3730.88,-134.81 3730.88,-150.42 3730.88,-163.73"/>
<polygon fill="black" stroke="black" points="3727.38,-163.8 3730.88,-173.8 3734.38,-163.8 3727.38,-163.8"/>
<text text-anchor="middle" x="3785.38" y="-144.8" font-family="Times New Roman,serif" font-size="14.00">rel=READ,var=end</text>
</g>
<!-- /opt/t/dead&#45;code/src/diff.js_5:2,5:30_ReturnStatement&#45;&gt;/opt/t/dead&#45;code/src/diff.js_4:0,6:1_FunctionDeclaration -->
<g id="edge13" class="edge">
<title>/opt/t/dead&#45;code/src/diff.js_5:2,5:30_ReturnStatement&#45;&gt;/opt/t/dead&#45;code/src/diff.js_4:0,6:1_FunctionDeclaration</title>
<path fill="none" stroke="black" d="M3820.32,-121.25C3840.4,-128.76 3852.71,-139.83 3840.88,-156 3836.92,-161.41 3832.12,-166.01 3826.76,-169.91"/>
<polygon fill="black" stroke="black" points="3824.51,-167.19 3817.92,-175.49 3828.24,-173.11 3824.51,-167.19"/>
<text text-anchor="middle" x="3884.38" y="-144.8" font-family="Times New Roman,serif" font-size="14.00">rel=RETURN</text>
</g>
<!-- /opt/t/dead&#45;code/src/diff.js_5:2,5:30_ReturnStatement&#45;&gt;/opt/t/dead&#45;code/src/diff.js_4:0,6:1_FunctionDeclaration -->
<g id="edge14" class="edge">
<title>/opt/t/dead&#45;code/src/diff.js_5:2,5:30_ReturnStatement&#45;&gt;/opt/t/dead&#45;code/src/diff.js_4:0,6:1_FunctionDeclaration</title>
<path fill="none" stroke="black" d="M3871.54,-118.17C3897.49,-123.31 3919.18,-130.62 3927.88,-141 3932.16,-146.11 3932.16,-150.89 3927.88,-156 3920.56,-164.73 3904.06,-171.29 3883.55,-176.21"/>
<polygon fill="black" stroke="black" points="3882.54,-172.85 3873.53,-178.43 3884.05,-179.69 3882.54,-172.85"/>
<text text-anchor="middle" x="4011.38" y="-144.8" font-family="Times New Roman,serif" font-size="14.00">rel=PARAM,var=start,idx=0</text>
</g>
<!-- /opt/t/dead&#45;code/src/diff.js_5:2,5:30_ReturnStatement&#45;&gt;/opt/t/dead&#45;code/src/diff.js_4:0,6:1_FunctionDeclaration -->
<g id="edge15" class="edge">
<title>/opt/t/dead&#45;code/src/diff.js_5:2,5:30_ReturnStatement&#45;&gt;/opt/t/dead&#45;code/src/diff.js_4:0,6:1_FunctionDeclaration</title>
<path fill="none" stroke="black" d="M3933.74,-108.26C4031.98,-113.18 4123.44,-125.68 4095.88,-156 4083.68,-169.43 4009.97,-177.84 3931.94,-183.03"/>
<polygon fill="black" stroke="black" points="3931.67,-179.54 3921.91,-183.68 3932.12,-186.53 3931.67,-179.54"/>
<text text-anchor="middle" x="4178.38" y="-144.8" font-family="Times New Roman,serif" font-size="14.00">rel=PARAM,var=end,idx=0</text>
</g>
<!-- /opt/t/dead&#45;code/src/diff.js_8:0,12:1_ExportDefaultDeclaration -->
<g id="node5" class="node">
<title>/opt/t/dead&#45;code/src/diff.js_8:0,12:1_ExportDefaultDeclaration</title>
<ellipse fill="none" stroke="black" cx="2695.88" cy="-192" rx="237.76" ry="18"/>
<text text-anchor="middle" x="2695.88" y="-188.3" font-family="Times New Roman,serif" font-size="14.00">/opt/t/dead&#45;code/src/diff.js_8:0,12:1_ExportDefaultDeclaration</text>
</g>
<!-- /opt/t/dead&#45;code/src/diff.js_8:15,12:1_FunctionDeclaration -->
<g id="node6" class="node">
<title>/opt/t/dead&#45;code/src/diff.js_8:15,12:1_FunctionDeclaration</title>
<ellipse fill="none" stroke="black" cx="1877.88" cy="-105" rx="223.66" ry="18"/>
<text text-anchor="middle" x="1877.88" y="-101.3" font-family="Times New Roman,serif" font-size="14.00">/opt/t/dead&#45;code/src/diff.js_8:15,12:1_FunctionDeclaration</text>
</g>
<!-- /opt/t/dead&#45;code/src/diff.js_8:0,12:1_ExportDefaultDeclaration&#45;&gt;/opt/t/dead&#45;code/src/diff.js_8:15,12:1_FunctionDeclaration -->
<g id="edge29" class="edge">
<title>/opt/t/dead&#45;code/src/diff.js_8:0,12:1_ExportDefaultDeclaration&#45;&gt;/opt/t/dead&#45;code/src/diff.js_8:15,12:1_FunctionDeclaration</title>
<path fill="none" stroke="black" d="M2675.01,-173.97C2659.45,-162.36 2637.14,-147.89 2614.88,-141 2566.75,-126.1 2299.37,-116.29 2100.44,-110.95"/>
<polygon fill="black" stroke="black" points="2100.51,-107.45 2090.42,-110.68 2100.33,-114.45 2100.51,-107.45"/>
<text text-anchor="middle" x="2694.38" y="-144.8" font-family="Times New Roman,serif" font-size="14.00">rel=EXP,var=diff</text>
</g>
<!-- /opt/t/dead&#45;code/src/diff.js_8:0,12:1_ExportDefaultDeclaration&#45;&gt;/opt/t/dead&#45;code/src/diff.js_8:15,12:1_FunctionDeclaration -->
<g id="edge30" class="edge">
<title>/opt/t/dead&#45;code/src/diff.js_8:0,12:1_ExportDefaultDeclaration&#45;&gt;/opt/t/dead&#45;code/src/diff.js_8:15,12:1_FunctionDeclaration</title>
<path fill="none" stroke="black" d="M2730.35,-174.13C2745.52,-164.56 2757.7,-152.27 2746.88,-141 2724.99,-118.21 2360.03,-110.26 2110.1,-107.49"/>
<polygon fill="black" stroke="black" points="2109.82,-103.98 2099.78,-107.37 2109.74,-110.98 2109.82,-103.98"/>
<text text-anchor="middle" x="2800.38" y="-144.8" font-family="Times New Roman,serif" font-size="14.00">rel=EXP,var=diff</text>
</g>
<!-- /opt/t/dead&#45;code/src/diff.js_9:2,11:18_IfStatement -->
<g id="node7" class="node">
<title>/opt/t/dead&#45;code/src/diff.js_9:2,11:18_IfStatement</title>
<ellipse fill="none" stroke="black" cx="1877.88" cy="-18" rx="192.27" ry="18"/>
<text text-anchor="middle" x="1877.88" y="-14.3" font-family="Times New Roman,serif" font-size="14.00">/opt/t/dead&#45;code/src/diff.js_9:2,11:18_IfStatement</text>
</g>
<!-- /opt/t/dead&#45;code/src/diff.js_8:15,12:1_FunctionDeclaration&#45;&gt;/opt/t/dead&#45;code/src/diff.js_9:2,11:18_IfStatement -->
<g id="edge16" class="edge">
<title>/opt/t/dead&#45;code/src/diff.js_8:15,12:1_FunctionDeclaration&#45;&gt;/opt/t/dead&#45;code/src/diff.js_9:2,11:18_IfStatement</title>
<path fill="none" stroke="black" d="M1673.62,-97.64C1585.25,-92.73 1498.69,-84.1 1484.88,-69 1480.38,-64.08 1480.38,-58.92 1484.88,-54 1499.38,-38.15 1594.02,-29.43 1686.78,-24.66"/>
<polygon fill="black" stroke="black" points="1687.09,-28.15 1696.91,-24.15 1686.75,-21.16 1687.09,-28.15"/>
<text text-anchor="middle" x="1555.88" y="-57.8" font-family="Times New Roman,serif" font-size="14.00">rel=ARG,var=start,idx=0</text>
</g>
<!-- /opt/t/dead&#45;code/src/diff.js_8:15,12:1_FunctionDeclaration&#45;&gt;/opt/t/dead&#45;code/src/diff.js_9:2,11:18_IfStatement -->
<g id="edge17" class="edge">
<title>/opt/t/dead&#45;code/src/diff.js_8:15,12:1_FunctionDeclaration&#45;&gt;/opt/t/dead&#45;code/src/diff.js_9:2,11:18_IfStatement</title>
<path fill="none" stroke="black" d="M1723.05,-91.97C1697.14,-86.83 1675.77,-79.48 1666.88,-69 1662.57,-63.91 1662.57,-59.09 1666.88,-54 1675.47,-43.87 1695.72,-36.67 1720.45,-31.55"/>
<polygon fill="black" stroke="black" points="1721.36,-34.94 1730.52,-29.62 1720.04,-28.07 1721.36,-34.94"/>
<text text-anchor="middle" x="1735.88" y="-57.8" font-family="Times New Roman,serif" font-size="14.00">rel=ARG,var=end,idx=1</text>
</g>
<!-- /opt/t/dead&#45;code/src/diff.js_9:2,11:18_IfStatement&#45;&gt;/opt/t/dead&#45;code/src/diff.js_8:15,12:1_FunctionDeclaration -->
<g id="edge3" class="edge">
<title>/opt/t/dead&#45;code/src/diff.js_9:2,11:18_IfStatement&#45;&gt;/opt/t/dead&#45;code/src/diff.js_8:15,12:1_FunctionDeclaration</title>
<path fill="none" stroke="black" d="M1830.14,-35.47C1814.23,-43.79 1802.46,-55.1 1810.88,-69 1813.66,-73.58 1817.25,-77.59 1821.33,-81.1"/>
<polygon fill="black" stroke="black" points="1819.56,-84.14 1829.7,-87.23 1823.7,-78.5 1819.56,-84.14"/>
<text text-anchor="middle" x="1867.38" y="-57.8" font-family="Times New Roman,serif" font-size="14.00">rel=READ,var=start</text>
</g>
<!-- /opt/t/dead&#45;code/src/diff.js_9:2,11:18_IfStatement&#45;&gt;/opt/t/dead&#45;code/src/diff.js_8:15,12:1_FunctionDeclaration -->
<g id="edge4" class="edge">
<title>/opt/t/dead&#45;code/src/diff.js_9:2,11:18_IfStatement&#45;&gt;/opt/t/dead&#45;code/src/diff.js_8:15,12:1_FunctionDeclaration</title>
<path fill="none" stroke="black" d="M1908.66,-35.83C1920.61,-44.74 1930.12,-56.42 1923.88,-69 1921.87,-73.05 1919.14,-76.77 1916.01,-80.13"/>
<polygon fill="black" stroke="black" points="1913.61,-77.59 1908.63,-86.94 1918.35,-82.73 1913.61,-77.59"/>
<text text-anchor="middle" x="1982.38" y="-57.8" font-family="Times New Roman,serif" font-size="14.00">rel=READ,var=start</text>
</g>
<!-- /opt/t/dead&#45;code/src/diff.js_9:2,11:18_IfStatement&#45;&gt;/opt/t/dead&#45;code/src/diff.js_8:15,12:1_FunctionDeclaration -->
<g id="edge5" class="edge">
<title>/opt/t/dead&#45;code/src/diff.js_9:2,11:18_IfStatement&#45;&gt;/opt/t/dead&#45;code/src/diff.js_8:15,12:1_FunctionDeclaration</title>
<path fill="none" stroke="black" d="M2022.68,-29.93C2046.38,-37.36 2058.71,-49.46 2042.88,-69 2036.82,-76.49 2022.96,-82.44 2005.73,-87.15"/>
<polygon fill="black" stroke="black" points="2004.68,-83.8 1995.84,-89.64 2006.39,-90.59 2004.68,-83.8"/>
<text text-anchor="middle" x="2104.38" y="-57.8" font-family="Times New Roman,serif" font-size="14.00">rel=READ,var=end</text>
</g>
<!-- /opt/t/dead&#45;code/src/diff.js_9:2,11:18_IfStatement&#45;&gt;/opt/t/dead&#45;code/src/diff.js_8:15,12:1_FunctionDeclaration -->
<g id="edge6" class="edge">
<title>/opt/t/dead&#45;code/src/diff.js_9:2,11:18_IfStatement&#45;&gt;/opt/t/dead&#45;code/src/diff.js_8:15,12:1_FunctionDeclaration</title>
<path fill="none" stroke="black" d="M2029.76,-29.05C2092.6,-34.79 2153.2,-43.06 2162.88,-54 2180.85,-74.31 2132.96,-86.38 2071.58,-93.55"/>
<polygon fill="black" stroke="black" points="2071.17,-90.08 2061.62,-94.66 2071.94,-97.04 2071.17,-90.08"/>
<text text-anchor="middle" x="2221.38" y="-57.8" font-family="Times New Roman,serif" font-size="14.00">rel=READ,var=end</text>
</g>
<!-- /opt/t/dead&#45;code/src/diff.js_10:4,10:61_ReturnStatement -->
<g id="node8" class="node">
<title>/opt/t/dead&#45;code/src/diff.js_10:4,10:61_ReturnStatement</title>
<ellipse fill="none" stroke="black" cx="1331.88" cy="-192" rx="215.26" ry="18"/>
<text text-anchor="middle" x="1331.88" y="-188.3" font-family="Times New Roman,serif" font-size="14.00">/opt/t/dead&#45;code/src/diff.js_10:4,10:61_ReturnStatement</text>
</g>
<!-- /opt/t/dead&#45;code/src/diff.js_10:4,10:61_ReturnStatement&#45;&gt;/opt/t/dead&#45;code/src/diff.js_1:0,1:60_ImportDeclaration -->
<g id="edge8" class="edge">
<title>/opt/t/dead&#45;code/src/diff.js_10:4,10:61_ReturnStatement&#45;&gt;/opt/t/dead&#45;code/src/diff.js_1:0,1:60_ImportDeclaration</title>
<path fill="none" stroke="black" d="M1121.5,-188.2C797.01,-183.38 209.79,-172.41 193.88,-156 187.56,-149.48 188.76,-140.59 192.63,-132.11"/>
<polygon fill="black" stroke="black" points="195.79,-133.63 197.65,-123.2 189.69,-130.19 195.79,-133.63"/>
<text text-anchor="middle" x="290.38" y="-144.8" font-family="Times New Roman,serif" font-size="14.00">rel=READ,var=intervalToDuration</text>
</g>
<!-- /opt/t/dead&#45;code/src/diff.js_10:4,10:61_ReturnStatement&#45;&gt;/opt/t/dead&#45;code/src/diff.js_1:0,1:60_ImportDeclaration -->
<g id="edge19" class="edge">
<title>/opt/t/dead&#45;code/src/diff.js_10:4,10:61_ReturnStatement&#45;&gt;/opt/t/dead&#45;code/src/diff.js_1:0,1:60_ImportDeclaration</title>
<path fill="none" stroke="black" d="M1119.45,-189.15C896.57,-186.06 561.39,-177.84 434.88,-156 412.86,-152.2 408.54,-146.53 386.88,-141 361.7,-134.57 334.24,-128.59 308.69,-123.47"/>
<polygon fill="black" stroke="black" points="309.12,-119.98 298.63,-121.47 307.76,-126.85 309.12,-119.98"/>
<text text-anchor="middle" x="555.38" y="-144.8" font-family="Times New Roman,serif" font-size="14.00">rel=PARAM,var=intervalToDuration,idx=0</text>
</g>
<!-- /opt/t/dead&#45;code/src/diff.js_10:4,10:61_ReturnStatement&#45;&gt;/opt/t/dead&#45;code/src/diff.js_2:0,2:52_ImportDeclaration -->
<g id="edge7" class="edge">
<title>/opt/t/dead&#45;code/src/diff.js_10:4,10:61_ReturnStatement&#45;&gt;/opt/t/dead&#45;code/src/diff.js_2:0,2:52_ImportDeclaration</title>
<path fill="none" stroke="black" d="M1116.84,-191.05C943.67,-189.16 723.68,-181.63 689.88,-156 682.63,-150.51 678.45,-141.76 676.05,-133.11"/>
<polygon fill="black" stroke="black" points="679.44,-132.27 673.96,-123.2 672.59,-133.71 679.44,-132.27"/>
<text text-anchor="middle" x="776.88" y="-144.8" font-family="Times New Roman,serif" font-size="14.00">rel=READ,var=formatDuration</text>
</g>
<!-- /opt/t/dead&#45;code/src/diff.js_10:4,10:61_ReturnStatement&#45;&gt;/opt/t/dead&#45;code/src/diff.js_8:15,12:1_FunctionDeclaration -->
<g id="edge9" class="edge">
<title>/opt/t/dead&#45;code/src/diff.js_10:4,10:61_ReturnStatement&#45;&gt;/opt/t/dead&#45;code/src/diff.js_8:15,12:1_FunctionDeclaration</title>
<path fill="none" stroke="black" d="M1122.26,-187.9C1009.05,-183.99 888.75,-175.28 870.88,-156 866.35,-151.11 866.25,-145.8 870.88,-141 897.38,-113.57 1355.29,-107.27 1644.4,-106.04"/>
<polygon fill="black" stroke="black" points="1644.63,-109.54 1654.61,-106 1644.6,-102.54 1644.63,-109.54"/>
<text text-anchor="middle" x="927.38" y="-144.8" font-family="Times New Roman,serif" font-size="14.00">rel=READ,var=start</text>
</g>
<!-- /opt/t/dead&#45;code/src/diff.js_10:4,10:61_ReturnStatement&#45;&gt;/opt/t/dead&#45;code/src/diff.js_8:15,12:1_FunctionDeclaration -->
<g id="edge10" class="edge">
<title>/opt/t/dead&#45;code/src/diff.js_10:4,10:61_ReturnStatement&#45;&gt;/opt/t/dead&#45;code/src/diff.js_8:15,12:1_FunctionDeclaration</title>
<path fill="none" stroke="black" d="M1135.34,-184.67C1053.81,-178.36 983.03,-165.83 1006.88,-141 1028.84,-118.14 1395.17,-110.21 1645.68,-107.46"/>
<polygon fill="black" stroke="black" points="1646.06,-110.96 1656.03,-107.35 1645.99,-103.96 1646.06,-110.96"/>
<text text-anchor="middle" x="1061.38" y="-144.8" font-family="Times New Roman,serif" font-size="14.00">rel=READ,var=end</text>
</g>
<!-- /opt/t/dead&#45;code/src/diff.js_10:4,10:61_ReturnStatement&#45;&gt;/opt/t/dead&#45;code/src/diff.js_8:15,12:1_FunctionDeclaration -->
<g id="edge18" class="edge">
<title>/opt/t/dead&#45;code/src/diff.js_10:4,10:61_ReturnStatement&#45;&gt;/opt/t/dead&#45;code/src/diff.js_8:15,12:1_FunctionDeclaration</title>
<path fill="none" stroke="black" d="M1192.6,-178.26C1167.82,-173.15 1147.23,-166 1138.88,-156 1134.61,-150.88 1134.28,-145.82 1138.88,-141 1156.56,-122.47 1439.12,-113.44 1649.61,-109.27"/>
<polygon fill="black" stroke="black" points="1649.96,-112.76 1659.89,-109.07 1649.82,-105.77 1649.96,-112.76"/>
<text text-anchor="middle" x="1178.38" y="-144.8" font-family="Times New Roman,serif" font-size="14.00">rel=RETURN</text>
</g>
<!-- /opt/t/dead&#45;code/src/diff.js_10:4,10:61_ReturnStatement&#45;&gt;/opt/t/dead&#45;code/src/diff.js_8:15,12:1_FunctionDeclaration -->
<g id="edge20" class="edge">
<title>/opt/t/dead&#45;code/src/diff.js_10:4,10:61_ReturnStatement&#45;&gt;/opt/t/dead&#45;code/src/diff.js_8:15,12:1_FunctionDeclaration</title>
<path fill="none" stroke="black" d="M1263.55,-174.81C1242.13,-166.66 1227.25,-155.4 1240.88,-141 1255.37,-125.69 1477.92,-116.21 1655.94,-111.04"/>
<polygon fill="black" stroke="black" points="1656.09,-114.54 1665.98,-110.76 1655.89,-107.54 1656.09,-114.54"/>
<text text-anchor="middle" x="1321.38" y="-144.8" font-family="Times New Roman,serif" font-size="14.00">rel=PARAM,var=start,idx=0</text>
</g>
<!-- /opt/t/dead&#45;code/src/diff.js_10:4,10:61_ReturnStatement&#45;&gt;/opt/t/dead&#45;code/src/diff.js_8:15,12:1_FunctionDeclaration -->
<g id="edge21" class="edge">
<title>/opt/t/dead&#45;code/src/diff.js_10:4,10:61_ReturnStatement&#45;&gt;/opt/t/dead&#45;code/src/diff.js_8:15,12:1_FunctionDeclaration</title>
<path fill="none" stroke="black" d="M1367.55,-174.15C1378.68,-168.63 1390.92,-162.29 1401.88,-156 1412.47,-149.93 1413.33,-144.93 1424.88,-141 1468.75,-126.1 1567.74,-117.5 1662.03,-112.56"/>
<polygon fill="black" stroke="black" points="1662.21,-116.06 1672.02,-112.05 1661.85,-109.07 1662.21,-116.06"/>
<text text-anchor="middle" x="1505.38" y="-144.8" font-family="Times New Roman,serif" font-size="14.00">rel=PARAM,var=start,idx=0</text>
</g>
<!-- /opt/t/dead&#45;code/src/diff.js_10:4,10:61_ReturnStatement&#45;&gt;/opt/t/dead&#45;code/src/diff.js_8:15,12:1_FunctionDeclaration -->
<g id="edge22" class="edge">
<title>/opt/t/dead&#45;code/src/diff.js_10:4,10:61_ReturnStatement&#45;&gt;/opt/t/dead&#45;code/src/diff.js_8:15,12:1_FunctionDeclaration</title>
<path fill="none" stroke="black" d="M1491.72,-179.91C1523.55,-174.67 1556.27,-167.06 1585.88,-156 1597.31,-151.73 1597.43,-145.23 1608.88,-141 1636.47,-130.82 1666.6,-123.52 1696.4,-118.3"/>
<polygon fill="black" stroke="black" points="1697.2,-121.72 1706.48,-116.61 1696.04,-114.81 1697.2,-121.72"/>
<text text-anchor="middle" x="1687.38" y="-144.8" font-family="Times New Roman,serif" font-size="14.00">rel=PARAM,var=end,idx=0</text>
</g>
<!-- /opt/t/dead&#45;code/src/diff.js_10:4,10:61_ReturnStatement&#45;&gt;/opt/t/dead&#45;code/src/diff.js_8:15,12:1_FunctionDeclaration -->
<g id="edge23" class="edge">
<title>/opt/t/dead&#45;code/src/diff.js_10:4,10:61_ReturnStatement&#45;&gt;/opt/t/dead&#45;code/src/diff.js_8:15,12:1_FunctionDeclaration</title>
<path fill="none" stroke="black" d="M1527.97,-184.54C1621.43,-179.57 1722.2,-170.92 1765.88,-156 1777.43,-152.05 1778.04,-146.6 1788.88,-141 1799.04,-135.76 1810.17,-130.81 1821.01,-126.37"/>
<polygon fill="black" stroke="black" points="1822.45,-129.56 1830.44,-122.6 1819.85,-123.06 1822.45,-129.56"/>
<text text-anchor="middle" x="1867.38" y="-144.8" font-family="Times New Roman,serif" font-size="14.00">rel=PARAM,var=end,idx=0</text>
</g>
<!-- /opt/t/dead&#45;code/src/diff.js_10:4,10:61_ReturnStatement&#45;&gt;/opt/t/dead&#45;code/src/diff.js_8:15,12:1_FunctionDeclaration -->
<g id="edge24" class="edge">
<title>/opt/t/dead&#45;code/src/diff.js_10:4,10:61_ReturnStatement&#45;&gt;/opt/t/dead&#45;code/src/diff.js_8:15,12:1_FunctionDeclaration</title>
<path fill="none" stroke="black" d="M1534.88,-186.03C1708.15,-180.76 1931.63,-171.09 1945.88,-156 1955.8,-145.5 1948,-135.68 1934.66,-127.56"/>
<polygon fill="black" stroke="black" points="1936.21,-124.42 1925.75,-122.74 1932.88,-130.58 1936.21,-124.42"/>
<text text-anchor="middle" x="2031.38" y="-144.8" font-family="Times New Roman,serif" font-size="14.00">rel=PARAM,var=start,idx=0</text>
</g>
<!-- /opt/t/dead&#45;code/src/diff.js_10:4,10:61_ReturnStatement&#45;&gt;/opt/t/dead&#45;code/src/diff.js_8:15,12:1_FunctionDeclaration -->
<g id="edge25" class="edge">
<title>/opt/t/dead&#45;code/src/diff.js_10:4,10:61_ReturnStatement&#45;&gt;/opt/t/dead&#45;code/src/diff.js_8:15,12:1_FunctionDeclaration</title>
<path fill="none" stroke="black" d="M1543.39,-188.7C1768.83,-185.18 2096.23,-176.55 2115.88,-156 2120.49,-151.18 2120.24,-146.05 2115.88,-141 2106.99,-130.71 2087.23,-123.39 2062.7,-118.2"/>
<polygon fill="black" stroke="black" points="2063.19,-114.72 2052.7,-116.24 2061.84,-121.59 2063.19,-114.72"/>
<text text-anchor="middle" x="2200.38" y="-144.8" font-family="Times New Roman,serif" font-size="14.00">rel=PARAM,var=start,idx=0</text>
</g>
<!-- /opt/t/dead&#45;code/src/diff.js_10:4,10:61_ReturnStatement&#45;&gt;/opt/t/dead&#45;code/src/diff.js_8:15,12:1_FunctionDeclaration -->
<g id="edge26" class="edge">
<title>/opt/t/dead&#45;code/src/diff.js_10:4,10:61_ReturnStatement&#45;&gt;/opt/t/dead&#45;code/src/diff.js_8:15,12:1_FunctionDeclaration</title>
<path fill="none" stroke="black" d="M1546.38,-190.56C1819.58,-188.92 2259.63,-182.2 2284.88,-156 2289.51,-151.2 2289.39,-145.91 2284.88,-141 2270.87,-125.73 2184.83,-117.11 2095.44,-112.25"/>
<polygon fill="black" stroke="black" points="2095.55,-108.75 2085.38,-111.72 2095.18,-115.74 2095.55,-108.75"/>
<text text-anchor="middle" x="2367.38" y="-144.8" font-family="Times New Roman,serif" font-size="14.00">rel=PARAM,var=end,idx=0</text>
</g>
<!-- /opt/t/dead&#45;code/src/diff.js_10:4,10:61_ReturnStatement&#45;&gt;/opt/t/dead&#45;code/src/diff.js_8:15,12:1_FunctionDeclaration -->
<g id="edge27" class="edge">
<title>/opt/t/dead&#45;code/src/diff.js_10:4,10:61_ReturnStatement&#45;&gt;/opt/t/dead&#45;code/src/diff.js_8:15,12:1_FunctionDeclaration</title>
<path fill="none" stroke="black" d="M1547.16,-191.87C1863.23,-192.06 2419.03,-187.83 2449.88,-156 2454.52,-151.21 2454.45,-145.86 2449.88,-141 2437.36,-127.69 2250.87,-118.13 2094.18,-112.4"/>
<polygon fill="black" stroke="black" points="2094.02,-108.89 2083.9,-112.03 2093.77,-115.89 2094.02,-108.89"/>
<text text-anchor="middle" x="2532.38" y="-144.8" font-family="Times New Roman,serif" font-size="14.00">rel=PARAM,var=end,idx=0</text>
</g>
<!-- /opt/t/dead&#45;code/src/diff.js_11:7,11:18_ReturnStatement -->
<g id="node9" class="node">
<title>/opt/t/dead&#45;code/src/diff.js_11:7,11:18_ReturnStatement</title>
<ellipse fill="none" stroke="black" cx="3166.88" cy="-192" rx="215.26" ry="18"/>
<text text-anchor="middle" x="3166.88" y="-188.3" font-family="Times New Roman,serif" font-size="14.00">/opt/t/dead&#45;code/src/diff.js_11:7,11:18_ReturnStatement</text>
</g>
<!-- /opt/t/dead&#45;code/src/diff.js_11:7,11:18_ReturnStatement&#45;&gt;/opt/t/dead&#45;code/src/diff.js_8:15,12:1_FunctionDeclaration -->
<g id="edge28" class="edge">
<title>/opt/t/dead&#45;code/src/diff.js_11:7,11:18_ReturnStatement&#45;&gt;/opt/t/dead&#45;code/src/diff.js_8:15,12:1_FunctionDeclaration</title>
<path fill="none" stroke="black" d="M3085.91,-175.32C3022.7,-163.76 2932.55,-148.74 2852.88,-141 2600.18,-116.44 2309.14,-108.64 2111.29,-106.39"/>
<polygon fill="black" stroke="black" points="2111.09,-102.89 2101.05,-106.28 2111.02,-109.89 2111.09,-102.89"/>
<text text-anchor="middle" x="3005.38" y="-144.8" font-family="Times New Roman,serif" font-size="14.00">rel=RETURN</text>
</g>
</g>
</svg>
