<?xml version="1.0" encoding="UTF-8" standalone="no"?>
<!DOCTYPE svg PUBLIC "-//W3C//DTD SVG 1.1//EN"
 "http://www.w3.org/Graphics/SVG/1.1/DTD/svg11.dtd">
<!-- Generated by graphviz version 2.44.1 (20200629.0846)
 -->
<!-- Pages: 1 -->
<svg width="3611pt" height="479pt"
 viewBox="0.00 0.00 3610.93 479.00" xmlns="http://www.w3.org/2000/svg" xmlns:xlink="http://www.w3.org/1999/xlink">
<g id="graph0" class="graph" transform="scale(1 1) rotate(0) translate(4 475)">
<polygon fill="white" stroke="transparent" points="-4,4 -4,-475 3606.93,-475 3606.93,4 -4,4"/>
<!-- /opt/t/dead&#45;code/src/index.js_1:0,1:28_ImportDeclaration -->
<g id="node1" class="node">
<title>/opt/t/dead&#45;code/src/index.js_1:0,1:28_ImportDeclaration</title>
<ellipse fill="none" stroke="black" cx="1389.43" cy="-279" rx="219.06" ry="18"/>
<text text-anchor="middle" x="1389.43" y="-275.3" font-family="Times New Roman,serif" font-size="14.00">/opt/t/dead&#45;code/src/index.js_1:0,1:28_ImportDeclaration</text>
</g>
<!-- /opt/t/dead&#45;code/src/index.js_3:0,3:37_VariableDeclaration -->
<g id="node2" class="node">
<title>/opt/t/dead&#45;code/src/index.js_3:0,3:37_VariableDeclaration</title>
<polygon fill="none" stroke="black" points="3214.43,-384 2870.43,-384 2870.43,-348 3214.43,-348 3214.43,-384"/>
<text text-anchor="middle" x="3042.43" y="-362.3" font-family="Times New Roman,serif" font-size="14.00">/opt/t/dead&#45;code/src/index.js_3:0,3:37_VariableDeclaration</text>
</g>
<!-- /opt/t/dead&#45;code/src/index.js_3:0,3:37_VariableDeclaration&#45;&gt;/opt/t/dead&#45;code/src/index.js_3:0,3:37_VariableDeclaration -->
<g id="edge1" class="edge">
<title>/opt/t/dead&#45;code/src/index.js_3:0,3:37_VariableDeclaration&#45;&gt;/opt/t/dead&#45;code/src/index.js_3:0,3:37_VariableDeclaration</title>
<path fill="none" stroke="black" d="M3214.57,-371.59C3225.7,-370.28 3232.43,-368.42 3232.43,-366 3232.43,-364.45 3229.67,-363.13 3224.76,-362.04"/>
<polygon fill="black" stroke="black" points="3225,-358.53 3214.57,-360.41 3223.9,-365.44 3225,-358.53"/>
<text text-anchor="middle" x="3295.43" y="-362.3" font-family="Times New Roman,serif" font-size="14.00">rel=WRITE,var=event</text>
</g>
<!-- /opt/t/dead&#45;code/src/index.js_4:0,4:48_VariableDeclaration -->
<g id="node3" class="node">
<title>/opt/t/dead&#45;code/src/index.js_4:0,4:48_VariableDeclaration</title>
<polygon fill="none" stroke="black" points="2707.43,-384 2363.43,-384 2363.43,-348 2707.43,-348 2707.43,-384"/>
<text text-anchor="middle" x="2535.43" y="-362.3" font-family="Times New Roman,serif" font-size="14.00">/opt/t/dead&#45;code/src/index.js_4:0,4:48_VariableDeclaration</text>
</g>
<!-- /opt/t/dead&#45;code/src/index.js_4:0,4:48_VariableDeclaration&#45;&gt;/opt/t/dead&#45;code/src/index.js_4:0,4:48_VariableDeclaration -->
<g id="edge2" class="edge">
<title>/opt/t/dead&#45;code/src/index.js_4:0,4:48_VariableDeclaration&#45;&gt;/opt/t/dead&#45;code/src/index.js_4:0,4:48_VariableDeclaration</title>
<path fill="none" stroke="black" d="M2707.57,-371.59C2718.7,-370.28 2725.43,-368.42 2725.43,-366 2725.43,-364.45 2722.67,-363.13 2717.76,-362.04"/>
<polygon fill="black" stroke="black" points="2718,-358.53 2707.57,-360.41 2716.9,-365.44 2718,-358.53"/>
<text text-anchor="middle" x="2788.93" y="-362.3" font-family="Times New Roman,serif" font-size="14.00">rel=WRITE,var=result</text>
</g>
<!-- /opt/t/dead&#45;code/src/index.js_6:0,20:1_ClassDeclaration -->
<g id="node4" class="node">
<title>/opt/t/dead&#45;code/src/index.js_6:0,20:1_ClassDeclaration</title>
<ellipse fill="none" stroke="black" cx="2040.43" cy="-105" rx="213.66" ry="18"/>
<text text-anchor="middle" x="2040.43" y="-101.3" font-family="Times New Roman,serif" font-size="14.00">/opt/t/dead&#45;code/src/index.js_6:0,20:1_ClassDeclaration</text>
</g>
<!-- /opt/t/dead&#45;code/src/index.js_8:4,8:46_ExpressionStatement -->
<g id="node5" class="node">
<title>/opt/t/dead&#45;code/src/index.js_8:4,8:46_ExpressionStatement</title>
<polygon fill="none" stroke="black" points="1266.93,-36 913.93,-36 913.93,0 1266.93,0 1266.93,-36"/>
<text text-anchor="middle" x="1090.43" y="-14.3" font-family="Times New Roman,serif" font-size="14.00">/opt/t/dead&#45;code/src/index.js_8:4,8:46_ExpressionStatement</text>
</g>
<!-- /opt/t/dead&#45;code/src/index.js_6:0,20:1_ClassDeclaration&#45;&gt;/opt/t/dead&#45;code/src/index.js_8:4,8:46_ExpressionStatement -->
<g id="edge40" class="edge">
<title>/opt/t/dead&#45;code/src/index.js_6:0,20:1_ClassDeclaration&#45;&gt;/opt/t/dead&#45;code/src/index.js_8:4,8:46_ExpressionStatement</title>
<path fill="none" stroke="black" d="M1900.02,-91.37C1838.65,-85.38 1765.88,-77.64 1700.43,-69 1658.92,-63.52 1649.03,-58.75 1607.43,-54 1498.22,-41.52 1375.5,-32.98 1277.03,-27.47"/>
<polygon fill="black" stroke="black" points="1277.15,-23.97 1266.97,-26.91 1276.76,-30.96 1277.15,-23.97"/>
<text text-anchor="middle" x="1764.43" y="-57.8" font-family="Times New Roman,serif" font-size="14.00">rel=ARG,var=id,idx=0</text>
</g>
<!-- /opt/t/dead&#45;code/src/index.js_8:4,8:46_ExpressionStatement&#45;&gt;/opt/t/dead&#45;code/src/index.js_6:0,20:1_ClassDeclaration -->
<g id="edge7" class="edge">
<title>/opt/t/dead&#45;code/src/index.js_8:4,8:46_ExpressionStatement&#45;&gt;/opt/t/dead&#45;code/src/index.js_6:0,20:1_ClassDeclaration</title>
<path fill="none" stroke="black" d="M1267.22,-23.5C1451.41,-28.87 1727.5,-39.05 1832.43,-54 1845.86,-55.91 1911.75,-71.94 1965.83,-85.34"/>
<polygon fill="black" stroke="black" points="1965.22,-88.8 1975.77,-87.81 1966.91,-82 1965.22,-88.8"/>
<text text-anchor="middle" x="1949.43" y="-57.8" font-family="Times New Roman,serif" font-size="14.00">rel=READ,var=id</text>
</g>
<!-- /opt/t/dead&#45;code/src/index.js_8:4,8:46_ExpressionStatement&#45;&gt;/opt/t/dead&#45;code/src/index.js_6:0,20:1_ClassDeclaration -->
<g id="edge41" class="edge">
<title>/opt/t/dead&#45;code/src/index.js_8:4,8:46_ExpressionStatement&#45;&gt;/opt/t/dead&#45;code/src/index.js_6:0,20:1_ClassDeclaration</title>
<path fill="none" stroke="black" d="M1267.01,-21.97C1522.76,-26.83 1969.39,-37.59 2001.43,-54 2011.82,-59.32 2020.3,-68.82 2026.67,-78.12"/>
<polygon fill="black" stroke="black" points="2023.84,-80.21 2032.11,-86.83 2029.78,-76.5 2023.84,-80.21"/>
<text text-anchor="middle" x="2093.43" y="-57.8" font-family="Times New Roman,serif" font-size="14.00">rel=PARAM,var=id,idx=0</text>
</g>
<!-- /opt/t/dead&#45;code/src/index.js_8:4,8:46_ExpressionStatement&#45;&gt;/opt/t/dead&#45;code/src/index.js_8:4,8:46_ExpressionStatement -->
<g id="edge23" class="edge">
<title>/opt/t/dead&#45;code/src/index.js_8:4,8:46_ExpressionStatement&#45;&gt;/opt/t/dead&#45;code/src/index.js_8:4,8:46_ExpressionStatement</title>
<path fill="none" stroke="black" d="M1266.94,-20.78C1278.16,-20.13 1284.93,-19.2 1284.93,-18 1284.93,-17.23 1282.15,-16.58 1277.2,-16.03"/>
<polygon fill="black" stroke="black" points="1277.18,-12.52 1266.94,-15.22 1276.63,-19.5 1277.18,-12.52"/>
<text text-anchor="middle" x="1333.93" y="-14.3" font-family="Times New Roman,serif" font-size="14.00">rel=READ,var=el</text>
</g>
<!-- /opt/t/dead&#45;code/src/index.js_8:4,8:46_ExpressionStatement&#45;&gt;/opt/t/dead&#45;code/src/index.js_8:4,8:46_ExpressionStatement -->
<g id="edge32" class="edge">
<title>/opt/t/dead&#45;code/src/index.js_8:4,8:46_ExpressionStatement&#45;&gt;/opt/t/dead&#45;code/src/index.js_8:4,8:46_ExpressionStatement</title>
<path fill="none" stroke="black" d="M1267,-25.87C1329.66,-25.77 1382.93,-23.15 1382.93,-18 1382.93,-13.13 1335.32,-10.52 1277.19,-10.17"/>
<polygon fill="black" stroke="black" points="1277.01,-6.67 1267,-10.13 1276.98,-13.67 1277.01,-6.67"/>
<text text-anchor="middle" x="1431.93" y="-14.3" font-family="Times New Roman,serif" font-size="14.00">rel=READ,var=el</text>
</g>
<!-- /opt/t/dead&#45;code/src/index.js_9:4,9:62_ExpressionStatement -->
<g id="node6" class="node">
<title>/opt/t/dead&#45;code/src/index.js_9:4,9:62_ExpressionStatement</title>
<ellipse fill="none" stroke="black" cx="229.43" cy="-105" rx="229.36" ry="18"/>
<text text-anchor="middle" x="229.43" y="-101.3" font-family="Times New Roman,serif" font-size="14.00">/opt/t/dead&#45;code/src/index.js_9:4,9:62_ExpressionStatement</text>
</g>
<!-- /opt/t/dead&#45;code/src/index.js_9:4,9:62_ExpressionStatement&#45;&gt;/opt/t/dead&#45;code/src/index.js_8:4,8:46_ExpressionStatement -->
<g id="edge25" class="edge">
<title>/opt/t/dead&#45;code/src/index.js_9:4,9:62_ExpressionStatement&#45;&gt;/opt/t/dead&#45;code/src/index.js_8:4,8:46_ExpressionStatement</title>
<path fill="none" stroke="black" d="M268.3,-87.22C297.03,-75.66 337.43,-61.13 374.43,-54 471.9,-35.21 725.94,-26.25 903.55,-22.16"/>
<polygon fill="black" stroke="black" points="903.89,-25.65 913.81,-21.93 903.73,-18.65 903.89,-25.65"/>
<text text-anchor="middle" x="423.43" y="-57.8" font-family="Times New Roman,serif" font-size="14.00">rel=READ,var=el</text>
</g>
<!-- /opt/t/dead&#45;code/src/index.js_9:4,9:62_ExpressionStatement&#45;&gt;/opt/t/dead&#45;code/src/index.js_8:4,8:46_ExpressionStatement -->
<g id="edge26" class="edge">
<title>/opt/t/dead&#45;code/src/index.js_9:4,9:62_ExpressionStatement&#45;&gt;/opt/t/dead&#45;code/src/index.js_8:4,8:46_ExpressionStatement</title>
<path fill="none" stroke="black" d="M337.49,-89.09C379.64,-83.1 428.33,-75.98 472.43,-69 511.18,-62.87 520.47,-58.63 559.43,-54 673.41,-40.46 801.82,-31.81 903.81,-26.51"/>
<polygon fill="black" stroke="black" points="904.1,-30 913.91,-25.99 903.74,-23.01 904.1,-30"/>
<text text-anchor="middle" x="608.43" y="-57.8" font-family="Times New Roman,serif" font-size="14.00">rel=READ,var=el</text>
</g>
<!-- /opt/t/dead&#45;code/src/index.js_9:4,9:62_ExpressionStatement&#45;&gt;/opt/t/dead&#45;code/src/index.js_8:4,8:46_ExpressionStatement -->
<g id="edge34" class="edge">
<title>/opt/t/dead&#45;code/src/index.js_9:4,9:62_ExpressionStatement&#45;&gt;/opt/t/dead&#45;code/src/index.js_8:4,8:46_ExpressionStatement</title>
<path fill="none" stroke="black" d="M425.35,-95.6C498.56,-90.47 582.17,-82.22 657.43,-69 682.38,-64.62 687.5,-58.52 712.43,-54 774.17,-42.81 842.26,-35.1 903.45,-29.84"/>
<polygon fill="black" stroke="black" points="903.93,-33.31 913.6,-28.98 903.34,-26.33 903.93,-33.31"/>
<text text-anchor="middle" x="761.43" y="-57.8" font-family="Times New Roman,serif" font-size="14.00">rel=READ,var=el</text>
</g>
<!-- /opt/t/dead&#45;code/src/index.js_9:4,9:62_ExpressionStatement&#45;&gt;/opt/t/dead&#45;code/src/index.js_8:4,8:46_ExpressionStatement -->
<g id="edge35" class="edge">
<title>/opt/t/dead&#45;code/src/index.js_9:4,9:62_ExpressionStatement&#45;&gt;/opt/t/dead&#45;code/src/index.js_8:4,8:46_ExpressionStatement</title>
<path fill="none" stroke="black" d="M455.23,-101.69C563.33,-97.72 694.24,-88.7 810.43,-69 834.57,-64.91 839.51,-59.21 863.43,-54 891.87,-47.81 922.55,-42.3 951.88,-37.59"/>
<polygon fill="black" stroke="black" points="952.44,-41.05 961.77,-36.03 951.34,-34.13 952.44,-41.05"/>
<text text-anchor="middle" x="912.43" y="-57.8" font-family="Times New Roman,serif" font-size="14.00">rel=READ,var=el</text>
</g>
<!-- /opt/t/dead&#45;code/src/index.js_9:4,9:62_ExpressionStatement&#45;&gt;/opt/t/dead&#45;code/src/index.js_9:4,9:62_ExpressionStatement -->
<g id="edge24" class="edge">
<title>/opt/t/dead&#45;code/src/index.js_9:4,9:62_ExpressionStatement&#45;&gt;/opt/t/dead&#45;code/src/index.js_9:4,9:62_ExpressionStatement</title>
<path fill="none" stroke="black" d="M456.47,-107.66C469.25,-107.01 476.86,-106.13 476.86,-105 476.86,-104.22 473.26,-103.56 466.86,-103.02"/>
<polygon fill="black" stroke="black" points="466.68,-99.5 456.47,-102.34 466.22,-106.48 466.68,-99.5"/>
<text text-anchor="middle" x="532.86" y="-101.3" font-family="Times New Roman,serif" font-size="14.00">rel=READ,var=date</text>
</g>
<!-- /opt/t/dead&#45;code/src/index.js_9:4,9:62_ExpressionStatement&#45;&gt;/opt/t/dead&#45;code/src/index.js_9:4,9:62_ExpressionStatement -->
<g id="edge33" class="edge">
<title>/opt/t/dead&#45;code/src/index.js_9:4,9:62_ExpressionStatement&#45;&gt;/opt/t/dead&#45;code/src/index.js_9:4,9:62_ExpressionStatement</title>
<path fill="none" stroke="black" d="M435.84,-112.87C517.37,-113.02 588.86,-110.39 588.86,-105 588.86,-99.84 523.38,-97.21 446.28,-97.13"/>
<polygon fill="black" stroke="black" points="445.83,-93.63 435.84,-97.13 445.84,-100.63 445.83,-93.63"/>
<text text-anchor="middle" x="644.86" y="-101.3" font-family="Times New Roman,serif" font-size="14.00">rel=READ,var=date</text>
</g>
<!-- /opt/t/dead&#45;code/src/index.js_11:4,15:6_ExpressionStatement -->
<g id="node7" class="node">
<title>/opt/t/dead&#45;code/src/index.js_11:4,15:6_ExpressionStatement</title>
<ellipse fill="none" stroke="black" cx="1575.43" cy="-105" rx="233.16" ry="18"/>
<text text-anchor="middle" x="1575.43" y="-101.3" font-family="Times New Roman,serif" font-size="14.00">/opt/t/dead&#45;code/src/index.js_11:4,15:6_ExpressionStatement</text>
</g>
<!-- /opt/t/dead&#45;code/src/index.js_11:4,15:6_ExpressionStatement&#45;&gt;/opt/t/dead&#45;code/src/index.js_8:4,8:46_ExpressionStatement -->
<g id="edge27" class="edge">
<title>/opt/t/dead&#45;code/src/index.js_11:4,15:6_ExpressionStatement&#45;&gt;/opt/t/dead&#45;code/src/index.js_8:4,8:46_ExpressionStatement</title>
<path fill="none" stroke="black" d="M1486.19,-88.36C1404.66,-74.07 1283.96,-52.92 1197.31,-37.73"/>
<polygon fill="black" stroke="black" points="1197.9,-34.28 1187.45,-36 1196.69,-41.18 1197.9,-34.28"/>
<text text-anchor="middle" x="1411.43" y="-57.8" font-family="Times New Roman,serif" font-size="14.00">rel=READ,var=el</text>
</g>
<!-- /opt/t/dead&#45;code/src/index.js_11:4,15:6_ExpressionStatement&#45;&gt;/opt/t/dead&#45;code/src/index.js_8:4,8:46_ExpressionStatement -->
<g id="edge36" class="edge">
<title>/opt/t/dead&#45;code/src/index.js_11:4,15:6_ExpressionStatement&#45;&gt;/opt/t/dead&#45;code/src/index.js_8:4,8:46_ExpressionStatement</title>
<path fill="none" stroke="black" d="M1544.87,-86.92C1523.12,-75.6 1492.83,-61.5 1464.43,-54 1404.55,-38.18 1337.64,-29.28 1277.14,-24.35"/>
<polygon fill="black" stroke="black" points="1277.34,-20.85 1267.1,-23.56 1276.79,-27.83 1277.34,-20.85"/>
<text text-anchor="middle" x="1554.43" y="-57.8" font-family="Times New Roman,serif" font-size="14.00">rel=READ,var=el</text>
</g>
<!-- /opt/t/dead&#45;code/src/index.js_12:6,12:39_VariableDeclaration -->
<g id="node8" class="node">
<title>/opt/t/dead&#45;code/src/index.js_12:6,12:39_VariableDeclaration</title>
<ellipse fill="none" stroke="black" cx="969.43" cy="-105" rx="232.86" ry="18"/>
<text text-anchor="middle" x="969.43" y="-101.3" font-family="Times New Roman,serif" font-size="14.00">/opt/t/dead&#45;code/src/index.js_12:6,12:39_VariableDeclaration</text>
</g>
<!-- /opt/t/dead&#45;code/src/index.js_12:6,12:39_VariableDeclaration&#45;&gt;/opt/t/dead&#45;code/src/index.js_8:4,8:46_ExpressionStatement -->
<g id="edge28" class="edge">
<title>/opt/t/dead&#45;code/src/index.js_12:6,12:39_VariableDeclaration&#45;&gt;/opt/t/dead&#45;code/src/index.js_8:4,8:46_ExpressionStatement</title>
<path fill="none" stroke="black" d="M965,-86.58C963.41,-76.11 963.46,-63.1 970.43,-54 973.93,-49.42 978,-45.42 982.48,-41.92"/>
<polygon fill="black" stroke="black" points="984.66,-44.67 990.95,-36.15 980.72,-38.89 984.66,-44.67"/>
<text text-anchor="middle" x="1019.43" y="-57.8" font-family="Times New Roman,serif" font-size="14.00">rel=READ,var=el</text>
</g>
<!-- /opt/t/dead&#45;code/src/index.js_12:6,12:39_VariableDeclaration&#45;&gt;/opt/t/dead&#45;code/src/index.js_8:4,8:46_ExpressionStatement -->
<g id="edge37" class="edge">
<title>/opt/t/dead&#45;code/src/index.js_12:6,12:39_VariableDeclaration&#45;&gt;/opt/t/dead&#45;code/src/index.js_8:4,8:46_ExpressionStatement</title>
<path fill="none" stroke="black" d="M1038.78,-87.75C1049.58,-83 1059.94,-76.87 1068.43,-69 1075.12,-62.79 1079.9,-54.17 1083.24,-45.84"/>
<polygon fill="black" stroke="black" points="1086.56,-46.95 1086.55,-36.35 1079.95,-44.65 1086.56,-46.95"/>
<text text-anchor="middle" x="1128.43" y="-57.8" font-family="Times New Roman,serif" font-size="14.00">rel=READ,var=el</text>
</g>
<!-- /opt/t/dead&#45;code/src/index.js_12:6,12:39_VariableDeclaration&#45;&gt;/opt/t/dead&#45;code/src/index.js_12:6,12:39_VariableDeclaration -->
<g id="edge8" class="edge">
<title>/opt/t/dead&#45;code/src/index.js_12:6,12:39_VariableDeclaration&#45;&gt;/opt/t/dead&#45;code/src/index.js_12:6,12:39_VariableDeclaration</title>
<path fill="none" stroke="black" d="M1187.75,-111.26C1207.61,-109.96 1220.11,-107.87 1220.11,-105 1220.11,-102.67 1211.86,-100.85 1198.11,-99.56"/>
<polygon fill="black" stroke="black" points="1197.99,-96.04 1187.75,-98.74 1197.44,-103.01 1197.99,-96.04"/>
<text text-anchor="middle" x="1272.11" y="-101.3" font-family="Times New Roman,serif" font-size="14.00">rel=WRITE,var=d</text>
</g>
<!-- /opt/t/dead&#45;code/src/index.js_13:6,13:37_ExpressionStatement -->
<g id="node9" class="node">
<title>/opt/t/dead&#45;code/src/index.js_13:6,13:37_ExpressionStatement</title>
<ellipse fill="none" stroke="black" cx="729.43" cy="-192" rx="237.76" ry="18"/>
<text text-anchor="middle" x="729.43" y="-188.3" font-family="Times New Roman,serif" font-size="14.00">/opt/t/dead&#45;code/src/index.js_13:6,13:37_ExpressionStatement</text>
</g>
<!-- /opt/t/dead&#45;code/src/index.js_13:6,13:37_ExpressionStatement&#45;&gt;/opt/t/dead&#45;code/src/index.js_9:4,9:62_ExpressionStatement -->
<g id="edge29" class="edge">
<title>/opt/t/dead&#45;code/src/index.js_13:6,13:37_ExpressionStatement&#45;&gt;/opt/t/dead&#45;code/src/index.js_9:4,9:62_ExpressionStatement</title>
<path fill="none" stroke="black" d="M510.92,-184.87C453.78,-179.64 392.71,-170.78 337.43,-156 313.2,-149.52 287.66,-137.94 267.5,-127.56"/>
<polygon fill="black" stroke="black" points="269.12,-124.45 258.65,-122.89 265.86,-130.65 269.12,-124.45"/>
<text text-anchor="middle" x="397.43" y="-144.8" font-family="Times New Roman,serif" font-size="14.00">rel=WRITE,var=date</text>
</g>
<!-- /opt/t/dead&#45;code/src/index.js_13:6,13:37_ExpressionStatement&#45;&gt;/opt/t/dead&#45;code/src/index.js_9:4,9:62_ExpressionStatement -->
<g id="edge38" class="edge">
<title>/opt/t/dead&#45;code/src/index.js_13:6,13:37_ExpressionStatement&#45;&gt;/opt/t/dead&#45;code/src/index.js_9:4,9:62_ExpressionStatement</title>
<path fill="none" stroke="black" d="M646.51,-175.1C592.69,-164.95 520.99,-151.72 457.43,-141 420.07,-134.7 379.19,-128.28 342.48,-122.68"/>
<polygon fill="black" stroke="black" points="342.66,-119.17 332.25,-121.13 341.61,-126.09 342.66,-119.17"/>
<text text-anchor="middle" x="600.43" y="-144.8" font-family="Times New Roman,serif" font-size="14.00">rel=WRITE,var=date</text>
</g>
<!-- /opt/t/dead&#45;code/src/index.js_13:6,13:37_ExpressionStatement&#45;&gt;/opt/t/dead&#45;code/src/index.js_12:6,12:39_VariableDeclaration -->
<g id="edge9" class="edge">
<title>/opt/t/dead&#45;code/src/index.js_13:6,13:37_ExpressionStatement&#45;&gt;/opt/t/dead&#45;code/src/index.js_12:6,12:39_VariableDeclaration</title>
<path fill="none" stroke="black" d="M724.65,-173.7C722.82,-163.02 722.73,-149.73 730.43,-141 739.21,-131.05 758.25,-123.88 781.94,-118.72"/>
<polygon fill="black" stroke="black" points="782.87,-122.1 791.99,-116.7 781.49,-115.24 782.87,-122.1"/>
<text text-anchor="middle" x="778.93" y="-144.8" font-family="Times New Roman,serif" font-size="14.00">rel=READ,var=d</text>
</g>
<!-- /opt/t/dead&#45;code/src/index.js_13:6,13:37_ExpressionStatement&#45;&gt;/opt/t/dead&#45;code/src/index.js_12:6,12:39_VariableDeclaration -->
<g id="edge10" class="edge">
<title>/opt/t/dead&#45;code/src/index.js_13:6,13:37_ExpressionStatement&#45;&gt;/opt/t/dead&#45;code/src/index.js_12:6,12:39_VariableDeclaration</title>
<path fill="none" stroke="black" d="M783.01,-174.42C797.7,-169.19 813.43,-162.94 827.43,-156 838.36,-150.58 839.35,-146.11 850.43,-141 863.46,-134.99 877.77,-129.74 891.8,-125.26"/>
<polygon fill="black" stroke="black" points="892.94,-128.57 901.46,-122.28 890.87,-121.89 892.94,-128.57"/>
<text text-anchor="middle" x="898.93" y="-144.8" font-family="Times New Roman,serif" font-size="14.00">rel=READ,var=d</text>
</g>
<!-- /opt/t/dead&#45;code/src/index.js_13:6,13:37_ExpressionStatement&#45;&gt;/opt/t/dead&#45;code/src/index.js_12:6,12:39_VariableDeclaration -->
<g id="edge43" class="edge">
<title>/opt/t/dead&#45;code/src/index.js_13:6,13:37_ExpressionStatement&#45;&gt;/opt/t/dead&#45;code/src/index.js_12:6,12:39_VariableDeclaration</title>
<path fill="none" stroke="black" d="M877.14,-177.84C907.99,-172.69 934.95,-165.64 947.43,-156 954.77,-150.33 959.71,-141.7 963.01,-133.2"/>
<polygon fill="black" stroke="black" points="966.42,-134.05 966.19,-123.46 959.76,-131.88 966.42,-134.05"/>
<text text-anchor="middle" x="1031.93" y="-144.8" font-family="Times New Roman,serif" font-size="14.00">rel=PARAM,var=d,idx=0</text>
</g>
<!-- /opt/t/dead&#45;code/src/index.js_13:6,13:37_ExpressionStatement&#45;&gt;/opt/t/dead&#45;code/src/index.js_13:6,13:37_ExpressionStatement -->
<g id="edge30" class="edge">
<title>/opt/t/dead&#45;code/src/index.js_13:6,13:37_ExpressionStatement&#45;&gt;/opt/t/dead&#45;code/src/index.js_13:6,13:37_ExpressionStatement</title>
<path fill="none" stroke="black" d="M964.94,-194.62C977.72,-193.98 985.31,-193.11 985.31,-192 985.31,-191.24 981.72,-190.59 975.33,-190.05"/>
<polygon fill="black" stroke="black" points="975.14,-186.53 964.94,-189.38 974.69,-193.51 975.14,-186.53"/>
<text text-anchor="middle" x="1041.31" y="-188.3" font-family="Times New Roman,serif" font-size="14.00">rel=READ,var=date</text>
</g>
<!-- /opt/t/dead&#45;code/src/index.js_13:6,13:37_ExpressionStatement&#45;&gt;/opt/t/dead&#45;code/src/index.js_13:6,13:37_ExpressionStatement -->
<g id="edge39" class="edge">
<title>/opt/t/dead&#45;code/src/index.js_13:6,13:37_ExpressionStatement&#45;&gt;/opt/t/dead&#45;code/src/index.js_13:6,13:37_ExpressionStatement</title>
<path fill="none" stroke="black" d="M943.82,-199.87C1025.98,-199.96 1097.31,-197.33 1097.31,-192 1097.31,-186.89 1031.72,-184.26 953.87,-184.13"/>
<polygon fill="black" stroke="black" points="953.82,-180.63 943.82,-184.13 953.82,-187.63 953.82,-180.63"/>
<text text-anchor="middle" x="1153.31" y="-188.3" font-family="Times New Roman,serif" font-size="14.00">rel=READ,var=date</text>
</g>
<!-- /opt/t/dead&#45;code/src/index.js_14:6,14:35_ExpressionStatement -->
<g id="node10" class="node">
<title>/opt/t/dead&#45;code/src/index.js_14:6,14:35_ExpressionStatement</title>
<polygon fill="none" stroke="black" points="3225.43,-471 2859.43,-471 2859.43,-435 3225.43,-435 3225.43,-471"/>
<text text-anchor="middle" x="3042.43" y="-449.3" font-family="Times New Roman,serif" font-size="14.00">/opt/t/dead&#45;code/src/index.js_14:6,14:35_ExpressionStatement</text>
</g>
<!-- /opt/t/dead&#45;code/src/index.js_14:6,14:35_ExpressionStatement&#45;&gt;/opt/t/dead&#45;code/src/index.js_3:0,3:37_VariableDeclaration -->
<g id="edge11" class="edge">
<title>/opt/t/dead&#45;code/src/index.js_14:6,14:35_ExpressionStatement&#45;&gt;/opt/t/dead&#45;code/src/index.js_3:0,3:37_VariableDeclaration</title>
<path fill="none" stroke="black" d="M2938.72,-434.96C2921.86,-430.15 2908.06,-424.21 2902.43,-417 2893.25,-405.24 2895.35,-396.24 2904.11,-389.36"/>
<polygon fill="black" stroke="black" points="2906.17,-392.21 2912.94,-384.06 2902.56,-386.2 2906.17,-392.21"/>
<text text-anchor="middle" x="2961.43" y="-405.8" font-family="Times New Roman,serif" font-size="14.00">rel=READ,var=event</text>
</g>
<!-- /opt/t/dead&#45;code/src/index.js_14:6,14:35_ExpressionStatement&#45;&gt;/opt/t/dead&#45;code/src/index.js_3:0,3:37_VariableDeclaration -->
<g id="edge42" class="edge">
<title>/opt/t/dead&#45;code/src/index.js_14:6,14:35_ExpressionStatement&#45;&gt;/opt/t/dead&#45;code/src/index.js_3:0,3:37_VariableDeclaration</title>
<path fill="none" stroke="black" d="M3042.43,-434.8C3042.43,-423.16 3042.43,-407.55 3042.43,-394.24"/>
<polygon fill="black" stroke="black" points="3045.93,-394.18 3042.43,-384.18 3038.93,-394.18 3045.93,-394.18"/>
<text text-anchor="middle" x="3125.43" y="-405.8" font-family="Times New Roman,serif" font-size="14.00">rel=PARAM,var=event,idx=1</text>
</g>
<!-- /opt/t/dead&#45;code/src/index.js_14:6,14:35_ExpressionStatement&#45;&gt;/opt/t/dead&#45;code/src/index.js_3:0,3:37_VariableDeclaration -->
<g id="edge44" class="edge">
<title>/opt/t/dead&#45;code/src/index.js_14:6,14:35_ExpressionStatement&#45;&gt;/opt/t/dead&#45;code/src/index.js_3:0,3:37_VariableDeclaration</title>
<path fill="none" stroke="black" d="M3172.86,-434.99C3189.82,-430.32 3203.41,-424.42 3209.43,-417 3218.44,-405.9 3218.44,-397.19 3212.45,-390.38"/>
<polygon fill="black" stroke="black" points="3214.58,-387.61 3204.56,-384.17 3210.25,-393.11 3214.58,-387.61"/>
<text text-anchor="middle" x="3298.43" y="-405.8" font-family="Times New Roman,serif" font-size="14.00">rel=PARAM,var=event,idx=0</text>
</g>
<!-- /opt/t/dead&#45;code/src/index.js_18:4,18:20_ReturnStatement -->
<g id="node11" class="node">
<title>/opt/t/dead&#45;code/src/index.js_18:4,18:20_ReturnStatement</title>
<ellipse fill="none" stroke="black" cx="729.43" cy="-279" rx="221.76" ry="18"/>
<text text-anchor="middle" x="729.43" y="-275.3" font-family="Times New Roman,serif" font-size="14.00">/opt/t/dead&#45;code/src/index.js_18:4,18:20_ReturnStatement</text>
</g>
<!-- /opt/t/dead&#45;code/src/index.js_18:4,18:20_ReturnStatement&#45;&gt;/opt/t/dead&#45;code/src/index.js_13:6,13:37_ExpressionStatement -->
<g id="edge31" class="edge">
<title>/opt/t/dead&#45;code/src/index.js_18:4,18:20_ReturnStatement&#45;&gt;/opt/t/dead&#45;code/src/index.js_13:6,13:37_ExpressionStatement</title>
<path fill="none" stroke="black" d="M729.43,-260.8C729.43,-249.16 729.43,-233.55 729.43,-220.24"/>
<polygon fill="black" stroke="black" points="732.93,-220.18 729.43,-210.18 725.93,-220.18 732.93,-220.18"/>
<text text-anchor="middle" x="785.43" y="-231.8" font-family="Times New Roman,serif" font-size="14.00">rel=READ,var=date</text>
</g>
<!-- /opt/t/dead&#45;code/src/index.js_22:0,22:36_VariableDeclaration -->
<g id="node12" class="node">
<title>/opt/t/dead&#45;code/src/index.js_22:0,22:36_VariableDeclaration</title>
<ellipse fill="none" stroke="black" cx="1839.43" cy="-192" rx="232.86" ry="18"/>
<text text-anchor="middle" x="1839.43" y="-188.3" font-family="Times New Roman,serif" font-size="14.00">/opt/t/dead&#45;code/src/index.js_22:0,22:36_VariableDeclaration</text>
</g>
<!-- /opt/t/dead&#45;code/src/index.js_22:0,22:36_VariableDeclaration&#45;&gt;/opt/t/dead&#45;code/src/index.js_6:0,20:1_ClassDeclaration -->
<g id="edge4" class="edge">
<title>/opt/t/dead&#45;code/src/index.js_22:0,22:36_VariableDeclaration&#45;&gt;/opt/t/dead&#45;code/src/index.js_6:0,20:1_ClassDeclaration</title>
<path fill="none" stroke="black" d="M1879.14,-174.21C1911.35,-160.59 1956.9,-141.32 1991.39,-126.74"/>
<polygon fill="black" stroke="black" points="1992.95,-129.88 2000.8,-122.76 1990.23,-123.43 1992.95,-129.88"/>
<text text-anchor="middle" x="2023.43" y="-144.8" font-family="Times New Roman,serif" font-size="14.00">rel=CALL,var=DateInput</text>
</g>
<!-- /opt/t/dead&#45;code/src/index.js_22:0,22:36_VariableDeclaration&#45;&gt;/opt/t/dead&#45;code/src/index.js_22:0,22:36_VariableDeclaration -->
<g id="edge3" class="edge">
<title>/opt/t/dead&#45;code/src/index.js_22:0,22:36_VariableDeclaration&#45;&gt;/opt/t/dead&#45;code/src/index.js_22:0,22:36_VariableDeclaration</title>
<path fill="none" stroke="black" d="M2057.75,-198.26C2077.61,-196.96 2090.11,-194.87 2090.11,-192 2090.11,-189.67 2081.86,-187.85 2068.11,-186.56"/>
<polygon fill="black" stroke="black" points="2067.99,-183.04 2057.75,-185.74 2067.44,-190.01 2067.99,-183.04"/>
<text text-anchor="middle" x="2155.11" y="-188.3" font-family="Times New Roman,serif" font-size="14.00">rel=WRITE,var=dateA</text>
</g>
<!-- /opt/t/dead&#45;code/src/index.js_23:0,23:36_VariableDeclaration -->
<g id="node13" class="node">
<title>/opt/t/dead&#45;code/src/index.js_23:0,23:36_VariableDeclaration</title>
<ellipse fill="none" stroke="black" cx="2470.43" cy="-192" rx="232.86" ry="18"/>
<text text-anchor="middle" x="2470.43" y="-188.3" font-family="Times New Roman,serif" font-size="14.00">/opt/t/dead&#45;code/src/index.js_23:0,23:36_VariableDeclaration</text>
</g>
<!-- /opt/t/dead&#45;code/src/index.js_23:0,23:36_VariableDeclaration&#45;&gt;/opt/t/dead&#45;code/src/index.js_6:0,20:1_ClassDeclaration -->
<g id="edge6" class="edge">
<title>/opt/t/dead&#45;code/src/index.js_23:0,23:36_VariableDeclaration&#45;&gt;/opt/t/dead&#45;code/src/index.js_6:0,20:1_ClassDeclaration</title>
<path fill="none" stroke="black" d="M2389.8,-175.06C2315.91,-160.46 2206.67,-138.86 2130.07,-123.72"/>
<polygon fill="black" stroke="black" points="2130.44,-120.23 2119.95,-121.72 2129.08,-127.09 2130.44,-120.23"/>
<text text-anchor="middle" x="2352.43" y="-144.8" font-family="Times New Roman,serif" font-size="14.00">rel=CALL,var=DateInput</text>
</g>
<!-- /opt/t/dead&#45;code/src/index.js_23:0,23:36_VariableDeclaration&#45;&gt;/opt/t/dead&#45;code/src/index.js_23:0,23:36_VariableDeclaration -->
<g id="edge5" class="edge">
<title>/opt/t/dead&#45;code/src/index.js_23:0,23:36_VariableDeclaration&#45;&gt;/opt/t/dead&#45;code/src/index.js_23:0,23:36_VariableDeclaration</title>
<path fill="none" stroke="black" d="M2688.75,-198.26C2708.61,-196.96 2721.11,-194.87 2721.11,-192 2721.11,-189.67 2712.86,-187.85 2699.11,-186.56"/>
<polygon fill="black" stroke="black" points="2698.99,-183.04 2688.75,-185.74 2698.44,-190.01 2698.99,-183.04"/>
<text text-anchor="middle" x="2785.61" y="-188.3" font-family="Times New Roman,serif" font-size="14.00">rel=WRITE,var=dateB</text>
</g>
<!-- /opt/t/dead&#45;code/src/index.js_25:0,31:2_ExpressionStatement -->
<g id="node14" class="node">
<title>/opt/t/dead&#45;code/src/index.js_25:0,31:2_ExpressionStatement</title>
<polygon fill="none" stroke="black" points="3602.93,-471 3243.93,-471 3243.93,-435 3602.93,-435 3602.93,-471"/>
<text text-anchor="middle" x="3423.43" y="-449.3" font-family="Times New Roman,serif" font-size="14.00">/opt/t/dead&#45;code/src/index.js_25:0,31:2_ExpressionStatement</text>
</g>
<!-- /opt/t/dead&#45;code/src/index.js_26:2,26:27_VariableDeclaration -->
<g id="node15" class="node">
<title>/opt/t/dead&#45;code/src/index.js_26:2,26:27_VariableDeclaration</title>
<ellipse fill="none" stroke="black" cx="1859.43" cy="-279" rx="232.86" ry="18"/>
<text text-anchor="middle" x="1859.43" y="-275.3" font-family="Times New Roman,serif" font-size="14.00">/opt/t/dead&#45;code/src/index.js_26:2,26:27_VariableDeclaration</text>
</g>
<!-- /opt/t/dead&#45;code/src/index.js_26:2,26:27_VariableDeclaration&#45;&gt;/opt/t/dead&#45;code/src/index.js_22:0,22:36_VariableDeclaration -->
<g id="edge13" class="edge">
<title>/opt/t/dead&#45;code/src/index.js_26:2,26:27_VariableDeclaration&#45;&gt;/opt/t/dead&#45;code/src/index.js_22:0,22:36_VariableDeclaration</title>
<path fill="none" stroke="black" d="M1855.38,-260.8C1852.64,-249.16 1848.97,-233.55 1845.84,-220.24"/>
<polygon fill="black" stroke="black" points="1849.17,-219.11 1843.47,-210.18 1842.35,-220.71 1849.17,-219.11"/>
<text text-anchor="middle" x="1912.43" y="-231.8" font-family="Times New Roman,serif" font-size="14.00">rel=READ,var=dateA</text>
</g>
<!-- /opt/t/dead&#45;code/src/index.js_26:2,26:27_VariableDeclaration&#45;&gt;/opt/t/dead&#45;code/src/index.js_26:2,26:27_VariableDeclaration -->
<g id="edge12" class="edge">
<title>/opt/t/dead&#45;code/src/index.js_26:2,26:27_VariableDeclaration&#45;&gt;/opt/t/dead&#45;code/src/index.js_26:2,26:27_VariableDeclaration</title>
<path fill="none" stroke="black" d="M2077.75,-285.26C2097.61,-283.96 2110.11,-281.87 2110.11,-279 2110.11,-276.67 2101.86,-274.85 2088.11,-273.56"/>
<polygon fill="black" stroke="black" points="2087.99,-270.04 2077.75,-272.74 2087.44,-277.01 2087.99,-270.04"/>
<text text-anchor="middle" x="2161.61" y="-275.3" font-family="Times New Roman,serif" font-size="14.00">rel=WRITE,var=a</text>
</g>
<!-- /opt/t/dead&#45;code/src/index.js_27:2,27:27_VariableDeclaration -->
<g id="node16" class="node">
<title>/opt/t/dead&#45;code/src/index.js_27:2,27:27_VariableDeclaration</title>
<ellipse fill="none" stroke="black" cx="2463.43" cy="-279" rx="232.86" ry="18"/>
<text text-anchor="middle" x="2463.43" y="-275.3" font-family="Times New Roman,serif" font-size="14.00">/opt/t/dead&#45;code/src/index.js_27:2,27:27_VariableDeclaration</text>
</g>
<!-- /opt/t/dead&#45;code/src/index.js_27:2,27:27_VariableDeclaration&#45;&gt;/opt/t/dead&#45;code/src/index.js_23:0,23:36_VariableDeclaration -->
<g id="edge15" class="edge">
<title>/opt/t/dead&#45;code/src/index.js_27:2,27:27_VariableDeclaration&#45;&gt;/opt/t/dead&#45;code/src/index.js_23:0,23:36_VariableDeclaration</title>
<path fill="none" stroke="black" d="M2464.85,-260.8C2465.8,-249.16 2467.09,-233.55 2468.19,-220.24"/>
<polygon fill="black" stroke="black" points="2471.68,-220.43 2469.02,-210.18 2464.71,-219.85 2471.68,-220.43"/>
<text text-anchor="middle" x="2527.93" y="-231.8" font-family="Times New Roman,serif" font-size="14.00">rel=READ,var=dateB</text>
</g>
<!-- /opt/t/dead&#45;code/src/index.js_27:2,27:27_VariableDeclaration&#45;&gt;/opt/t/dead&#45;code/src/index.js_27:2,27:27_VariableDeclaration -->
<g id="edge14" class="edge">
<title>/opt/t/dead&#45;code/src/index.js_27:2,27:27_VariableDeclaration&#45;&gt;/opt/t/dead&#45;code/src/index.js_27:2,27:27_VariableDeclaration</title>
<path fill="none" stroke="black" d="M2681.75,-285.26C2701.61,-283.96 2714.11,-281.87 2714.11,-279 2714.11,-276.67 2705.86,-274.85 2692.11,-273.56"/>
<polygon fill="black" stroke="black" points="2691.99,-270.04 2681.75,-272.74 2691.44,-277.01 2691.99,-270.04"/>
<text text-anchor="middle" x="2766.11" y="-275.3" font-family="Times New Roman,serif" font-size="14.00">rel=WRITE,var=b</text>
</g>
<!-- /opt/t/dead&#45;code/src/index.js_28:2,28:25_VariableDeclaration -->
<g id="node17" class="node">
<title>/opt/t/dead&#45;code/src/index.js_28:2,28:25_VariableDeclaration</title>
<ellipse fill="none" stroke="black" cx="1977.43" cy="-366" rx="232.86" ry="18"/>
<text text-anchor="middle" x="1977.43" y="-362.3" font-family="Times New Roman,serif" font-size="14.00">/opt/t/dead&#45;code/src/index.js_28:2,28:25_VariableDeclaration</text>
</g>
<!-- /opt/t/dead&#45;code/src/index.js_28:2,28:25_VariableDeclaration&#45;&gt;/opt/t/dead&#45;code/src/index.js_1:0,1:28_ImportDeclaration -->
<g id="edge17" class="edge">
<title>/opt/t/dead&#45;code/src/index.js_28:2,28:25_VariableDeclaration&#45;&gt;/opt/t/dead&#45;code/src/index.js_1:0,1:28_ImportDeclaration</title>
<path fill="none" stroke="black" d="M1872.98,-349.9C1768.92,-334.86 1609.62,-311.83 1502.6,-296.36"/>
<polygon fill="black" stroke="black" points="1502.81,-292.85 1492.41,-294.89 1501.81,-299.78 1502.81,-292.85"/>
<text text-anchor="middle" x="1773.93" y="-318.8" font-family="Times New Roman,serif" font-size="14.00">rel=READ,var=diff</text>
</g>
<!-- /opt/t/dead&#45;code/src/index.js_28:2,28:25_VariableDeclaration&#45;&gt;/opt/t/dead&#45;code/src/index.js_26:2,26:27_VariableDeclaration -->
<g id="edge18" class="edge">
<title>/opt/t/dead&#45;code/src/index.js_28:2,28:25_VariableDeclaration&#45;&gt;/opt/t/dead&#45;code/src/index.js_26:2,26:27_VariableDeclaration</title>
<path fill="none" stroke="black" d="M1883.7,-349.43C1874.72,-344.53 1866.65,-338.19 1860.43,-330 1855.61,-323.66 1854.11,-315.43 1854.18,-307.5"/>
<polygon fill="black" stroke="black" points="1857.68,-307.66 1855.02,-297.41 1850.7,-307.08 1857.68,-307.66"/>
<text text-anchor="middle" x="1907.93" y="-318.8" font-family="Times New Roman,serif" font-size="14.00">rel=READ,var=a</text>
</g>
<!-- /opt/t/dead&#45;code/src/index.js_28:2,28:25_VariableDeclaration&#45;&gt;/opt/t/dead&#45;code/src/index.js_26:2,26:27_VariableDeclaration -->
<g id="edge45" class="edge">
<title>/opt/t/dead&#45;code/src/index.js_28:2,28:25_VariableDeclaration&#45;&gt;/opt/t/dead&#45;code/src/index.js_26:2,26:27_VariableDeclaration</title>
<path fill="none" stroke="black" d="M1973.52,-347.68C1970.3,-336.98 1964.7,-323.69 1955.43,-315 1949.6,-309.54 1942.86,-304.92 1935.7,-301.01"/>
<polygon fill="black" stroke="black" points="1936.96,-297.73 1926.45,-296.43 1933.86,-304 1936.96,-297.73"/>
<text text-anchor="middle" x="2037.93" y="-318.8" font-family="Times New Roman,serif" font-size="14.00">rel=PARAM,var=a,idx=0</text>
</g>
<!-- /opt/t/dead&#45;code/src/index.js_28:2,28:25_VariableDeclaration&#45;&gt;/opt/t/dead&#45;code/src/index.js_27:2,27:27_VariableDeclaration -->
<g id="edge19" class="edge">
<title>/opt/t/dead&#45;code/src/index.js_28:2,28:25_VariableDeclaration&#45;&gt;/opt/t/dead&#45;code/src/index.js_27:2,27:27_VariableDeclaration</title>
<path fill="none" stroke="black" d="M2066.85,-349.36C2150.93,-334.66 2276.57,-312.68 2363.82,-297.42"/>
<polygon fill="black" stroke="black" points="2364.48,-300.86 2373.73,-295.69 2363.28,-293.96 2364.48,-300.86"/>
<text text-anchor="middle" x="2298.93" y="-318.8" font-family="Times New Roman,serif" font-size="14.00">rel=READ,var=b</text>
</g>
<!-- /opt/t/dead&#45;code/src/index.js_28:2,28:25_VariableDeclaration&#45;&gt;/opt/t/dead&#45;code/src/index.js_27:2,27:27_VariableDeclaration -->
<g id="edge46" class="edge">
<title>/opt/t/dead&#45;code/src/index.js_28:2,28:25_VariableDeclaration&#45;&gt;/opt/t/dead&#45;code/src/index.js_27:2,27:27_VariableDeclaration</title>
<path fill="none" stroke="black" d="M2184.32,-357.75C2239.27,-352.55 2298.13,-343.99 2351.43,-330 2376.26,-323.49 2402.54,-312.02 2423.39,-301.71"/>
<polygon fill="black" stroke="black" points="2425.22,-304.71 2432.57,-297.08 2422.07,-298.46 2425.22,-304.71"/>
<text text-anchor="middle" x="2465.93" y="-318.8" font-family="Times New Roman,serif" font-size="14.00">rel=PARAM,var=b,idx=1</text>
</g>
<!-- /opt/t/dead&#45;code/src/index.js_28:2,28:25_VariableDeclaration&#45;&gt;/opt/t/dead&#45;code/src/index.js_28:2,28:25_VariableDeclaration -->
<g id="edge16" class="edge">
<title>/opt/t/dead&#45;code/src/index.js_28:2,28:25_VariableDeclaration&#45;&gt;/opt/t/dead&#45;code/src/index.js_28:2,28:25_VariableDeclaration</title>
<path fill="none" stroke="black" d="M2195.75,-372.26C2215.61,-370.96 2228.11,-368.87 2228.11,-366 2228.11,-363.67 2219.86,-361.85 2206.11,-360.56"/>
<polygon fill="black" stroke="black" points="2205.99,-357.04 2195.75,-359.74 2205.44,-364.01 2205.99,-357.04"/>
<text text-anchor="middle" x="2286.61" y="-362.3" font-family="Times New Roman,serif" font-size="14.00">rel=WRITE,var=text</text>
</g>
<!-- /opt/t/dead&#45;code/src/index.js_30:2,30:63_IfStatement -->
<g id="node18" class="node">
<title>/opt/t/dead&#45;code/src/index.js_30:2,30:63_IfStatement</title>
<ellipse fill="none" stroke="black" cx="1977.43" cy="-453" rx="203.36" ry="18"/>
<text text-anchor="middle" x="1977.43" y="-449.3" font-family="Times New Roman,serif" font-size="14.00">/opt/t/dead&#45;code/src/index.js_30:2,30:63_IfStatement</text>
</g>
<!-- /opt/t/dead&#45;code/src/index.js_30:2,30:63_IfStatement&#45;&gt;/opt/t/dead&#45;code/src/index.js_28:2,28:25_VariableDeclaration -->
<g id="edge20" class="edge">
<title>/opt/t/dead&#45;code/src/index.js_30:2,30:63_IfStatement&#45;&gt;/opt/t/dead&#45;code/src/index.js_28:2,28:25_VariableDeclaration</title>
<path fill="none" stroke="black" d="M1977.43,-434.8C1977.43,-423.16 1977.43,-407.55 1977.43,-394.24"/>
<polygon fill="black" stroke="black" points="1980.93,-394.18 1977.43,-384.18 1973.93,-394.18 1980.93,-394.18"/>
<text text-anchor="middle" x="2031.93" y="-405.8" font-family="Times New Roman,serif" font-size="14.00">rel=READ,var=text</text>
</g>
<!-- /opt/t/dead&#45;code/src/index.js_30:20,30:63_ExpressionStatement -->
<g id="node19" class="node">
<title>/opt/t/dead&#45;code/src/index.js_30:20,30:63_ExpressionStatement</title>
<ellipse fill="none" stroke="black" cx="2465.43" cy="-453" rx="242.36" ry="18"/>
<text text-anchor="middle" x="2465.43" y="-449.3" font-family="Times New Roman,serif" font-size="14.00">/opt/t/dead&#45;code/src/index.js_30:20,30:63_ExpressionStatement</text>
</g>
<!-- /opt/t/dead&#45;code/src/index.js_30:20,30:63_ExpressionStatement&#45;&gt;/opt/t/dead&#45;code/src/index.js_4:0,4:48_VariableDeclaration -->
<g id="edge21" class="edge">
<title>/opt/t/dead&#45;code/src/index.js_30:20,30:63_ExpressionStatement&#45;&gt;/opt/t/dead&#45;code/src/index.js_4:0,4:48_VariableDeclaration</title>
<path fill="none" stroke="black" d="M2479.6,-434.8C2489.65,-422.59 2503.32,-405.99 2514.61,-392.28"/>
<polygon fill="black" stroke="black" points="2517.63,-394.12 2521.29,-384.18 2512.23,-389.67 2517.63,-394.12"/>
<text text-anchor="middle" x="2564.93" y="-405.8" font-family="Times New Roman,serif" font-size="14.00">rel=READ,var=result</text>
</g>
<!-- /opt/t/dead&#45;code/src/index.js_30:20,30:63_ExpressionStatement&#45;&gt;/opt/t/dead&#45;code/src/index.js_28:2,28:25_VariableDeclaration -->
<g id="edge22" class="edge">
<title>/opt/t/dead&#45;code/src/index.js_30:20,30:63_ExpressionStatement&#45;&gt;/opt/t/dead&#45;code/src/index.js_28:2,28:25_VariableDeclaration</title>
<path fill="none" stroke="black" d="M2375.07,-436.26C2290.57,-421.54 2164.63,-399.61 2077.22,-384.38"/>
<polygon fill="black" stroke="black" points="2077.74,-380.92 2067.28,-382.65 2076.54,-387.82 2077.74,-380.92"/>
<text text-anchor="middle" x="2305.93" y="-405.8" font-family="Times New Roman,serif" font-size="14.00">rel=READ,var=text</text>
</g>
</g>
</svg>
